<svg width="25" height="25" viewBox="0 0 25 25" fill="none" xmlns="http://www.w3.org/2000/svg">
<g clip-path="url(#clip0_1380_18439)">
<path d="M17.1864 0C15.8536 0.092187 14.2958 0.945307 13.388 2.05624C12.5599 3.06404 11.8786 4.56091 12.1443 6.01559C13.6005 6.0609 15.1052 5.18747 15.977 4.05779C16.7927 3.00623 17.4098 1.51874 17.1864 0Z" fill="black"/>
<path d="M22.4528 8.38749C21.1731 6.78281 19.3747 5.85156 17.6763 5.85156C15.4341 5.85156 14.4857 6.92499 12.9279 6.92499C11.3216 6.92499 10.1013 5.85469 8.16227 5.85469C6.25759 5.85469 4.22948 7.01874 2.94355 9.00936C1.13575 11.8125 1.44512 17.0827 4.37479 21.5718C5.42322 23.178 6.82321 24.9843 8.65445 24.9999C10.2841 25.0155 10.7435 23.9546 12.9513 23.9436C15.1591 23.9311 15.5779 25.014 17.2044 24.9968C19.0372 24.9827 20.5138 22.9812 21.5622 21.3749C22.3137 20.2234 22.5934 19.6437 23.1762 18.3437C18.9372 16.7296 18.2575 10.7015 22.4528 8.38749Z" fill="black"/>
</g>
<defs>
<clipPath id="clip0_1380_18439">
<rect width="25" height="25" fill="white"/>
</clipPath>
</defs>
</svg>
