<svg width="300" height="300" viewBox="0 0 300 300" fill="none" xmlns="http://www.w3.org/2000/svg">
<path d="M266.353 192.12H157.903C155.965 192.12 154.387 190.542 154.387 188.604V30.6361C154.387 28.6981 155.965 27.1201 157.903 27.1201H266.353C268.291 27.1201 269.869 28.6981 269.869 30.6361V188.604C269.869 190.542 268.291 192.12 266.353 192.12ZM157.903 27.2701C156.049 27.2701 154.537 28.7821 154.537 30.6361V188.604C154.537 190.458 156.049 191.97 157.903 191.97H266.353C268.207 191.97 269.719 190.458 269.719 188.604V30.6361C269.719 28.7821 268.207 27.2701 266.353 27.2701H157.903Z" fill="#E0E0E0"/>
<path d="M141.294 192.12H32.85C30.912 192.12 29.334 190.542 29.334 188.604V30.6361C29.334 28.6981 30.912 27.1201 32.85 27.1201H141.294C143.232 27.1201 144.81 28.6981 144.81 30.6361V188.604C144.81 190.542 143.232 192.12 141.294 192.12ZM32.85 27.2701C30.996 27.2701 29.484 28.7821 29.484 30.6361V188.604C29.484 190.458 30.996 191.97 32.85 191.97H141.294C143.148 191.97 144.66 190.458 144.66 188.604V30.6361C144.66 28.7821 143.148 27.2701 141.294 27.2701H32.85Z" fill="#E0E0E0"/>
<path d="M300 228.762H0V228.912H300V228.762Z" fill="#E0E0E0"/>
<path d="M40.638 237.318H31.002V237.468H40.638V237.318Z" fill="#E0E0E0"/>
<path d="M134.329 235.692H102.211V235.842H134.329V235.692Z" fill="#E0E0E0"/>
<path d="M62.9883 242.892H41.2383V243.042H62.9883V242.892Z" fill="#E0E0E0"/>
<path d="M252.924 235.614H227.01V235.764H252.924V235.614Z" fill="#E0E0E0"/>
<path d="M262.068 235.614H258.27V235.764H262.068V235.614Z" fill="#E0E0E0"/>
<path d="M222.061 239.352H189.727V239.502H222.061V239.352Z" fill="#E0E0E0"/>
<path d="M42.0478 209.304C42.0418 209.094 41.3398 188.358 37.9678 185.082C34.6858 181.896 30.9238 184.962 30.7618 185.094L30.4258 184.686C30.4678 184.65 34.7158 181.182 38.3338 184.698C41.8558 188.124 42.5458 208.422 42.5758 209.28L42.0478 209.298V209.304Z" fill="#E0E0E0"/>
<path d="M42.3374 213.384C42.3134 213.138 40.0334 188.49 49.0334 178.164L49.4294 178.512C40.5794 188.67 42.8354 213.09 42.8594 213.336L42.3314 213.39L42.3374 213.384Z" fill="#E0E0E0"/>
<path d="M42.0067 210.774L41.4787 210.738C41.4967 210.456 43.2427 182.724 36.6367 176.652L36.9967 176.262C43.7827 182.502 42.0847 209.622 42.0067 210.774Z" fill="#E0E0E0"/>
<path d="M42.8639 210.762H42.3359C42.3419 209.994 42.5519 192.024 47.6579 189.096C48.7919 188.442 49.9019 188.334 50.9579 188.772C54.0419 190.05 55.5719 195.54 55.6379 195.774L55.1279 195.912C55.1159 195.858 53.6039 190.434 50.7539 189.258C49.8539 188.886 48.8999 188.988 47.9159 189.552C43.0739 192.33 42.8579 210.576 42.8579 210.762H42.8639Z" fill="#E0E0E0"/>
<path d="M40.8787 210.774L40.3507 210.744C40.3567 210.6 41.1187 196.542 37.3267 191.586C36.4087 190.386 35.4067 189.816 34.3567 189.888C31.8727 190.062 29.7847 193.698 29.7667 193.734L29.3047 193.476C29.3947 193.314 31.5487 189.552 34.3207 189.36C35.5627 189.27 36.7147 189.912 37.7467 191.262C41.6587 196.368 40.9147 210.18 40.8787 210.768V210.774Z" fill="#E0E0E0"/>
<path d="M41.7131 212.682C41.6111 211.32 39.2351 179.214 43.4171 173.556L43.8431 173.868C39.7751 179.37 42.2171 212.304 42.2411 212.64L41.7131 212.682Z" fill="#E0E0E0"/>
<path d="M52.0992 192.024C52.0992 192.024 49.5912 192.948 50.3352 195.132C51.0792 197.316 59.0172 200.91 59.0172 200.91C59.0172 200.91 62.3412 197.862 59.2872 192.912C56.2332 187.956 52.1652 190.464 52.0992 192.024Z" fill="#EBEBEB"/>
<path d="M41.1901 187.866C41.1901 187.866 43.8601 187.752 44.0161 190.056C44.1661 192.36 38.2261 198.732 38.2261 198.732C38.2261 198.732 33.9841 197.202 34.8961 191.454C35.8081 185.706 40.5241 186.45 41.1901 187.866Z" fill="#EBEBEB"/>
<path d="M38.9286 176.844C38.9286 176.844 40.7106 176.652 40.5666 175.566C40.4226 174.48 33.6426 171.69 29.6406 176.202C29.6406 176.202 32.2026 180.6 35.9046 180.66C39.6066 180.72 38.9286 176.838 38.9286 176.838V176.844Z" fill="#EBEBEB"/>
<path d="M42.2527 174.21C42.2527 174.21 40.6387 174.99 40.1887 173.994C39.7387 172.998 44.0167 167.04 49.8007 168.756C49.8007 168.756 49.9567 173.844 46.8427 175.854C43.7287 177.864 42.2587 174.21 42.2587 174.21H42.2527Z" fill="#EBEBEB"/>
<path d="M33.8165 191.148C33.8165 191.148 35.0465 190.158 33.7205 189.672C32.3945 189.186 25.8845 189.324 25.8125 195.774C25.8125 195.774 33.3965 197.034 34.3325 194.58C35.2685 192.126 33.8165 191.154 33.8165 191.154V191.148Z" fill="#EBEBEB"/>
<path d="M49.2778 176.682C49.2778 176.682 48.0478 175.692 49.3738 175.206C50.6998 174.72 57.2098 174.858 57.2758 181.308C57.2758 181.308 49.6918 182.568 48.7558 180.114C47.8198 177.66 49.2718 176.688 49.2718 176.688L49.2778 176.682Z" fill="#EBEBEB"/>
<path d="M45.2706 181.878C45.2706 181.878 45.1626 180.672 46.1346 181.146C47.1066 181.62 50.5026 185.28 46.9866 188.754C46.9866 188.754 42.2526 185.244 43.1046 183.42C43.9566 181.596 45.2706 181.878 45.2706 181.878Z" fill="#EBEBEB"/>
<path d="M32.7177 183.6C32.7177 183.6 33.4497 182.634 32.3757 182.52C31.3017 182.4 26.4777 183.69 27.5997 188.502C27.5997 188.502 33.4737 188.058 33.7257 186.06C33.9777 184.062 32.7177 183.6 32.7177 183.6Z" fill="#EBEBEB"/>
<path d="M53.0821 228.636H32.9161L30.7441 206.556H55.2541L53.0821 228.636Z" fill="#F0F0F0"/>
<path d="M55.8183 204.12H29.1543V208.992H55.8183V204.12Z" fill="#E6E6E6"/>
<path d="M276.095 105.498H218.363V106.47H276.095V105.498Z" fill="#E0E0E0"/>
<path d="M254.97 124.92C253.596 138.576 254.622 149.046 255.138 161.55C255.684 174.81 253.482 187.854 253.848 201.876C254.676 201.354 255.42 201.096 256.17 201.876C257.262 202.638 258.21 202.884 259.056 201.876C260.166 201.876 260.922 201.348 261.54 201.876C262.368 190.986 263.478 179.568 262.368 172.128C262.212 170.61 266.778 171.018 266.874 168.882C267.354 159.054 265.308 141.024 263.61 125.028C263.61 124.914 263.598 124.8 263.568 124.686L261.66 116.562C261.564 116.136 261.366 115.74 261.096 115.404L260.58 114.756L259.752 110.61V105.498H259.272V110.58L257.79 112.944L253.176 117.048L254.976 124.926L254.97 124.92Z" fill="#E0E0E0"/>
<path d="M224.405 116.592L223.031 123.966C223.031 124.032 223.031 124.092 223.031 124.158L220.721 201.87C221.549 200.214 222.287 200.508 223.043 201.87C224.069 203.214 225.029 203.268 225.929 201.87C227.081 200.646 227.813 201 228.413 201.87L229.241 172.122L230.483 125.022C230.501 124.908 230.501 124.794 230.483 124.68L228.575 116.556C228.479 116.13 228.281 115.734 228.011 115.398L227.495 114.75L226.667 110.604V105.492H226.187V110.574L225.683 114.852L224.951 115.68C224.681 115.926 224.495 116.238 224.405 116.592Z" fill="#E0E0E0"/>
<path d="M234.138 116.592L232.764 123.966C232.764 124.032 232.764 124.092 232.764 124.158C230.706 148.296 230.106 174.426 230.454 201.87C231.282 200.214 232.014 200.508 232.764 201.87C233.79 203.214 234.75 203.268 235.656 201.87C236.802 200.646 237.528 201 238.14 201.87C238.968 190.98 240.09 179.562 238.968 172.122C238.14 163.644 242.28 144.504 240.21 125.022C240.222 124.908 240.222 124.794 240.21 124.68L238.296 116.556C238.2 116.13 238.002 115.734 237.732 115.398L237.216 114.75L236.388 110.604V105.492H235.908V110.574L235.32 114.852L234.588 115.68C234.354 115.938 234.198 116.25 234.132 116.592H234.138Z" fill="#E0E0E0"/>
<path d="M265.511 116.592L264.137 123.966C264.137 124.032 264.137 124.092 264.137 124.158C262.079 148.296 261.479 174.426 261.827 201.87C262.655 200.214 263.387 200.508 264.137 201.87C265.163 203.214 266.123 203.268 267.029 201.87C268.175 200.646 268.901 201 269.513 201.87C270.341 190.98 271.463 179.562 270.341 172.122C269.513 163.644 273.653 144.504 271.583 125.022C271.595 124.908 271.595 124.794 271.583 124.68L269.669 116.556C269.567 116.136 269.381 115.74 269.111 115.398L268.595 114.75L267.767 110.604V105.492H267.287V110.574L266.783 114.852L266.051 115.68C265.793 115.932 265.601 116.244 265.505 116.592H265.511Z" fill="#E0E0E0"/>
<path d="M245.843 116.592L244.433 123.966V124.158C240.797 136.5 242.909 149.094 243.425 161.55C243.965 174.81 241.769 187.854 242.135 201.876C242.963 201.354 243.701 201.096 244.445 201.876C245.537 202.638 246.485 202.884 247.331 201.876C248.441 201.876 249.197 201.348 249.815 201.876C250.643 190.986 251.753 179.568 250.643 172.128C250.487 170.61 255.053 171.018 255.149 168.882C255.629 159.054 253.583 141.024 251.885 125.028C251.885 124.914 251.873 124.8 251.843 124.686L249.935 116.562C249.839 116.136 249.641 115.74 249.371 115.404L248.855 114.756L248.027 110.61V105.498H247.547V110.58L247.043 114.858L246.311 115.686C246.071 115.938 245.909 116.256 245.837 116.598L245.843 116.592Z" fill="#E0E0E0"/>
<path d="M149.123 55.8662H105.113V111.918H149.123V55.8662Z" fill="#E6E6E6"/>
<path d="M146.148 59.6523H108.084V108.132H146.148V59.6523Z" fill="#FAFAFA"/>
<path d="M126.798 79.2063C129.067 79.2063 130.907 77.3662 130.907 75.0963C130.907 72.8264 129.067 70.9863 126.798 70.9863C124.528 70.9863 122.688 72.8264 122.688 75.0963C122.688 77.3662 124.528 79.2063 126.798 79.2063Z" fill="#E0E0E0"/>
<path d="M127.122 80.9102H136.068L131.592 88.6561L127.122 96.4081L122.646 88.6561L118.17 80.9102H127.122Z" fill="#E0E0E0"/>
<path d="M203.868 38.646H160.746V93.564H203.868V38.646Z" fill="#E6E6E6"/>
<path d="M200.958 42.354H163.656V89.856H200.958V42.354Z" fill="#FAFAFA"/>
<path d="M186.019 57.486C186.019 59.712 184.219 61.512 181.993 61.512C179.767 61.512 177.967 59.712 177.967 57.486C177.967 55.26 179.767 53.46 181.993 53.46C184.219 53.46 186.019 55.26 186.019 57.486Z" fill="#E0E0E0"/>
<path d="M182.305 78.372H173.539L177.925 70.776L182.305 63.186L186.691 70.776L191.077 78.372H182.305Z" fill="#E0E0E0"/>
<path d="M79.0853 99.7141C80.0827 99.7141 80.8913 98.9055 80.8913 97.908C80.8913 96.9106 80.0827 96.1021 79.0853 96.1021C78.0879 96.1021 77.2793 96.9106 77.2793 97.908C77.2793 98.9055 78.0879 99.7141 79.0853 99.7141Z" fill="#E0E0E0"/>
<path d="M36.2767 99.7141C37.2741 99.7141 38.0827 98.9055 38.0827 97.908C38.0827 96.9106 37.2741 96.1021 36.2767 96.1021C35.2793 96.1021 34.4707 96.9106 34.4707 97.908C34.4707 98.9055 35.2793 99.7141 36.2767 99.7141Z" fill="#E0E0E0"/>
<path d="M281.25 269.034C281.25 271.068 222.486 272.712 150 272.712C77.514 272.712 18.75 271.062 18.75 269.034C18.75 267.006 77.514 265.356 150 265.356C222.486 265.356 281.25 267.006 281.25 269.034Z" fill="#F5F5F5"/>
<path d="M282.845 82.2241H211.619V88.7401H282.845V82.2241Z" fill="#263238"/>
<path d="M222.833 71.2858L222.389 71.2078C222.695 69.4918 223.013 67.7218 223.691 66.0658C224.219 64.7638 225.221 62.9758 226.967 61.8778C229.553 60.2518 233.237 60.6418 235.727 62.8018C237.953 64.7338 239.171 67.9678 238.907 71.2438L238.457 71.2078C238.709 68.0698 237.551 64.9738 235.433 63.1378C233.129 61.1338 229.589 60.7558 227.207 62.2558C225.563 63.2938 224.615 64.9918 224.111 66.2338C223.457 67.8478 223.139 69.5938 222.839 71.2858H222.833Z" fill="#263238"/>
<path d="M240.964 74.7298C240.964 78.8698 236.47 82.2238 230.932 82.2238C225.394 82.2238 220.9 78.8698 220.9 74.7298C220.9 72.8998 221.386 70.8478 222.85 69.5458C224.692 67.9078 227.848 67.2358 230.932 67.2358C233.608 67.2358 236.734 67.7698 238.534 69.0478C240.454 70.4158 240.964 72.5878 240.964 74.7298Z" fill="#F83758"/>
<path opacity="0.3" d="M240.964 74.7298C240.964 78.8698 236.47 82.2238 230.932 82.2238C225.394 82.2238 220.9 78.8698 220.9 74.7298C220.9 72.8998 221.386 70.8478 222.85 69.5458C224.692 67.9078 227.848 67.2358 230.932 67.2358C233.608 67.2358 236.734 67.7698 238.534 69.0478C240.454 70.4158 240.964 72.5878 240.964 74.7298Z" fill="black"/>
<path opacity="0.3" d="M221.572 72.0356C221.572 72.0356 224.5 75.5576 230.938 75.6176C237.37 75.6776 240.304 72.0356 240.304 72.0356C240.304 72.0356 237.85 76.9016 230.41 76.9016C224.968 76.9016 221.572 72.0356 221.572 72.0356Z" fill="black"/>
<path d="M230.609 74.4716C231.056 74.4716 231.419 74.1089 231.419 73.6616C231.419 73.2142 231.056 72.8516 230.609 72.8516C230.161 72.8516 229.799 73.2142 229.799 73.6616C229.799 74.1089 230.161 74.4716 230.609 74.4716Z" fill="#263238"/>
<path d="M275.429 67.8901H253.373V81.9421H275.429V67.8901Z" fill="#F83758"/>
<path d="M276.82 66.2998H251.98V72.1798H276.82V66.2998Z" fill="#F83758"/>
<path opacity="0.3" d="M275.429 72.2339H253.373V73.6859H275.429V72.2339Z" fill="black"/>
<path opacity="0.3" d="M267.664 68.1602H261.142C260.611 68.1602 260.182 68.59 260.182 69.1202V69.3302C260.182 69.8604 260.611 70.2902 261.142 70.2902H267.664C268.194 70.2902 268.624 69.8604 268.624 69.3302V69.1202C268.624 68.59 268.194 68.1602 267.664 68.1602Z" fill="black"/>
<path d="M278.375 65.028C277.493 64.5 276.491 64.104 275.423 63.846C275.087 63.888 271.715 64.284 270.173 62.532C268.553 60.684 266.261 54.33 262.553 54.702C262.577 54.66 262.607 54.624 262.631 54.582C262.607 54.612 262.577 54.636 262.553 54.66C262.439 54.792 262.355 54.936 262.289 55.086C262.097 55.854 261.965 56.628 261.899 57.402C261.725 60.048 261.845 63.588 262.079 66.228H262.865L262.967 60.354C262.967 58.662 264.803 60.63 265.325 62.436C265.847 64.242 266.933 66.222 271.829 66.228C277.463 66.252 279.833 66.066 278.375 65.028Z" fill="#263238"/>
<path opacity="0.1" d="M278.375 65.028C277.493 64.5 276.491 64.104 275.423 63.846C275.087 63.888 271.715 64.284 270.173 62.532C268.553 60.684 266.261 54.33 262.553 54.702C262.577 54.66 262.607 54.624 262.631 54.582C262.607 54.612 262.577 54.636 262.553 54.66C262.439 54.792 262.355 54.936 262.289 55.086C262.097 55.854 261.965 56.628 261.899 57.402C261.725 60.048 261.845 63.588 262.079 66.228H262.865L262.967 60.354C262.967 58.662 264.803 60.63 265.325 62.436C265.847 64.242 266.933 66.222 271.829 66.228C277.463 66.252 279.833 66.066 278.375 65.028Z" fill="black"/>
<path d="M269.08 65.028C268.198 64.5 267.196 64.104 266.128 63.846C265.792 63.888 262.42 64.284 260.878 62.532C259.258 60.684 256.966 54.33 253.258 54.702C253.282 54.66 253.312 54.624 253.336 54.582C253.312 54.612 253.282 54.636 253.258 54.66C253.144 54.792 253.06 54.936 252.994 55.086C252.802 55.854 252.67 56.628 252.604 57.402C252.43 60.048 252.55 63.588 252.784 66.228H253.57L253.672 60.354C253.672 58.662 255.508 60.63 256.03 62.436C256.552 64.242 257.638 66.222 262.534 66.228C268.168 66.252 270.538 66.066 269.08 65.028Z" fill="#263238"/>
<path d="M66.5145 65.1598L66.0645 65.1358C66.0825 64.8118 66.0945 64.4698 66.1125 64.1158C66.2085 61.7998 66.3345 58.9138 67.5765 56.9758C68.8665 54.9658 71.0505 53.7718 74.0745 53.4178C76.8045 53.0998 79.5645 54.2578 81.1125 56.3638C82.8045 58.6618 82.9305 61.7038 82.9184 64.6258H82.4685C82.4804 61.7818 82.3604 58.8178 80.7524 56.6338C79.2944 54.6538 76.6965 53.5678 74.1285 53.8678C71.2485 54.2038 69.1725 55.3318 67.9545 57.2218C66.7725 59.0578 66.6585 61.8778 66.5625 64.1398C66.5505 64.4938 66.5325 64.8418 66.5145 65.1658V65.1598Z" fill="#263238"/>
<path d="M86.1049 78.5096H62.8789L65.2729 63.4136H84.2209L86.1049 78.5096Z" fill="#F83758"/>
<path opacity="0.3" d="M65.2734 63.4136C65.2734 63.4136 68.1294 70.9316 74.4954 70.9616C80.8614 70.9856 84.2214 63.4136 84.2214 63.4136C84.2214 63.4136 81.1014 72.4196 74.4954 72.2876C67.8894 72.1496 65.2734 63.4136 65.2734 63.4136Z" fill="black"/>
<path d="M76.4695 68.2256H72.6895V68.9576H76.4695V68.2256Z" fill="#263238"/>
<path d="M52.902 75.312H29.094C28.4909 75.312 28.002 75.8009 28.002 76.404V77.304C28.002 77.9071 28.4909 78.396 29.094 78.396H52.902C53.505 78.396 53.994 77.9071 53.994 77.304V76.404C53.994 75.8009 53.505 75.312 52.902 75.312Z" fill="#F83758"/>
<path d="M27.1914 73.3262V74.2202C27.2034 74.8382 27.7134 75.3242 28.3314 75.3122H53.0154C53.6334 75.3242 54.1434 74.8322 54.1554 74.2202V73.3262C54.1434 72.7082 53.6334 72.2162 53.0154 72.2282H28.3134C27.7014 72.2282 27.2034 72.7202 27.1914 73.3262Z" fill="#F83758"/>
<path opacity="0.3" d="M27.1914 73.3262V74.2202C27.2034 74.8382 27.7134 75.3242 28.3314 75.3122H53.0154C53.6334 75.3242 54.1434 74.8322 54.1554 74.2202V73.3262C54.1434 72.7082 53.6334 72.2162 53.0154 72.2282H28.3134C27.7014 72.2282 27.2034 72.7202 27.1914 73.3262Z" fill="black"/>
<path d="M27.2695 70.2358V71.1298C27.2875 71.7538 27.8035 72.2398 28.4275 72.2218H53.5615C54.1855 72.2398 54.7015 71.7478 54.7195 71.1298V70.2358C54.7075 69.6118 54.1915 69.1198 53.5675 69.1318H28.4275C27.8035 69.1138 27.2875 69.6058 27.2695 70.2238V70.2358Z" fill="#F83758"/>
<path d="M27.918 67.1462V68.0402C27.918 68.6462 28.41 69.1382 29.022 69.1382H52.896C53.502 69.1382 54 68.6462 54 68.0402V67.1462C54 66.5402 53.502 66.0542 52.896 66.0542H28.986C28.392 66.0722 27.924 66.5582 27.918 67.1462Z" fill="#F83758"/>
<path opacity="0.3" d="M27.918 67.1462V68.0402C27.918 68.6462 28.41 69.1382 29.022 69.1382H52.896C53.502 69.1382 54 68.6462 54 68.0402V67.1462C54 66.5402 53.502 66.0542 52.896 66.0542H28.986C28.392 66.0722 27.924 66.5582 27.918 67.1462Z" fill="black"/>
<path d="M29.3037 64.062V64.956C29.2797 65.526 29.7177 66.018 30.2877 66.048H51.6177C52.1937 66.018 52.6317 65.526 52.6017 64.956V64.062C52.6317 63.486 52.1937 62.994 51.6177 62.958H30.3177C29.7417 62.976 29.2857 63.456 29.3037 64.038V64.062Z" fill="#F83758"/>
<path d="M93.4916 78.2817H22.2656V84.7977H93.4916V78.2817Z" fill="#263238"/>
<path d="M75.677 255.336H52.541V267.966H75.677V255.336Z" fill="#263238"/>
<path opacity="0.7" d="M75.677 255.336H52.541V267.966H75.677V255.336Z" fill="white"/>
<path d="M77.142 253.914H51.084V259.2H77.142V253.914Z" fill="#263238"/>
<path opacity="0.7" d="M77.142 253.914H51.084V259.2H77.142V253.914Z" fill="white"/>
<path opacity="0.3" d="M75.677 259.242H52.541V260.544H75.677V259.242Z" fill="black"/>
<path opacity="0.3" d="M66.3717 257.496H62.3877C61.8597 257.496 61.4277 257.07 61.4277 256.536C61.4277 256.008 61.8537 255.576 62.3877 255.576H66.3717C66.8997 255.576 67.3317 256.002 67.3317 256.536C67.3317 257.064 66.9057 257.496 66.3717 257.496Z" fill="black"/>
<path d="M53.1538 253.914H22.1758V267.966H53.1538V253.914Z" fill="#F83758"/>
<path d="M55.1167 252.33H20.2207V258.21H55.1167V252.33Z" fill="#F83758"/>
<path opacity="0.3" d="M53.1538 258.258H22.1758V259.71H53.1538V258.258Z" fill="black"/>
<path opacity="0.3" d="M41.0221 254.19H35.0401C34.5099 254.19 34.0801 254.62 34.0801 255.15V255.36C34.0801 255.89 34.5099 256.32 35.0401 256.32H41.0221C41.5523 256.32 41.9821 255.89 41.9821 255.36V255.15C41.9821 254.62 41.5523 254.19 41.0221 254.19Z" fill="black"/>
<path d="M53.1538 237.294H22.1758V252.33H53.1538V237.294Z" fill="#263238"/>
<path d="M55.1167 235.596H20.2207V241.89H55.1167V235.596Z" fill="#263238"/>
<path opacity="0.3" d="M53.1538 241.944H22.1758V243.498H53.1538V241.944Z" fill="black"/>
<path opacity="0.3" d="M41.0221 237.588H35.0401C34.5099 237.588 34.0801 238.018 34.0801 238.548V238.908C34.0801 239.439 34.5099 239.868 35.0401 239.868H41.0221C41.5523 239.868 41.9821 239.439 41.9821 238.908V238.548C41.9821 238.018 41.5523 237.588 41.0221 237.588Z" fill="black"/>
<path d="M254.122 169.728H250.486V261.318H254.122V169.728Z" fill="#263238"/>
<path opacity="0.3" d="M254.122 169.728H250.486V261.318H254.122V169.728Z" fill="white"/>
<path d="M237.023 267.966L250.487 258.984L252.299 260.424L240.497 267.966H237.023Z" fill="#263238"/>
<path opacity="0.3" d="M237.023 267.966L250.487 258.984L252.299 260.424L240.497 267.966H237.023Z" fill="white"/>
<path d="M267.581 267.966L254.117 258.984L252.299 260.424L264.107 267.966H267.581Z" fill="#263238"/>
<path opacity="0.3" d="M267.581 267.966L254.117 258.984L252.299 260.424L264.107 267.966H267.581Z" fill="white"/>
<path d="M233.543 135.054C233.183 132.822 234.569 130.692 236.759 130.134C240.581 129.168 246.857 127.452 247.619 126.438C248.723 124.968 249.461 117.972 249.461 117.972L253.877 118.71V180.726H236.393C236.393 180.726 236.579 176.676 238.049 171.522C239.519 166.368 242.099 161.034 242.099 161.034C242.099 161.034 234.917 143.484 233.549 135.054H233.543Z" fill="#F83758"/>
<path d="M271.738 135.054C272.098 132.822 270.712 130.692 268.522 130.134C264.7 129.168 258.424 127.452 257.662 126.438C256.558 124.968 255.82 117.972 255.82 117.972L251.404 118.71V180.726H268.888C268.888 180.726 268.702 176.676 267.232 171.522C265.762 166.368 263.182 161.034 263.182 161.034C263.182 161.034 270.364 143.484 271.732 135.054H271.738Z" fill="#F83758"/>
<path opacity="0.2" d="M252.953 122.334C255.524 122.334 257.609 118.265 257.609 113.244C257.609 108.224 255.524 104.154 252.953 104.154C250.381 104.154 248.297 108.224 248.297 113.244C248.297 118.265 250.381 122.334 252.953 122.334Z" fill="black"/>
<path d="M252.953 120.552C257.731 120.552 261.605 115.773 261.605 109.878C261.605 103.983 257.731 99.2041 252.953 99.2041C248.174 99.2041 244.301 103.983 244.301 109.878C244.301 115.773 248.174 120.552 252.953 120.552Z" fill="#F83758"/>
<path d="M236.17 144.93C236.17 144.93 242.956 136.35 252.952 144.93C252.952 144.93 263.038 135.582 268.792 145.908L264.01 161.34C264.01 161.34 272.29 181.638 271.798 197.49L273.826 243.558H266.908L264.496 206.616L262.882 243.558H234.946C234.946 243.558 234.418 185.484 237.52 173.544C239.932 164.262 241.396 161.34 241.396 161.34L236.17 144.93Z" fill="#263238"/>
<path d="M53.3593 112.59H22.7893C22.3753 112.59 22.0153 112.32 21.9013 111.924C21.7873 111.522 21.9493 111.108 22.3033 110.886L37.4233 101.484L53.8093 110.934C54.1633 111.138 54.3313 111.54 54.2233 111.93C54.1153 112.326 53.7733 112.59 53.3653 112.59H53.3593ZM22.6153 111.396C22.4233 111.516 22.4593 111.702 22.4773 111.756C22.4953 111.81 22.5613 111.99 22.7893 111.99H53.3593C53.5633 111.99 53.6233 111.828 53.6353 111.774C53.6473 111.72 53.6773 111.552 53.5033 111.45L37.4293 102.18L22.6153 111.39V111.396Z" fill="#263238"/>
<path d="M37.5375 102.138C37.5075 102.138 37.4775 102.138 37.4475 102.126C37.2915 102.072 37.2015 101.904 37.2555 101.748C37.6035 100.686 37.7715 99.582 37.7595 98.46C37.7595 97.98 37.7055 97.374 37.3935 96.948C37.1835 96.654 36.8295 96.462 36.4215 96.42C35.9955 96.372 35.5815 96.492 35.2935 96.744C34.7055 97.26 34.6335 98.298 35.1435 98.922C35.2455 99.048 35.2275 99.24 35.1015 99.342C34.9755 99.45 34.7835 99.426 34.6815 99.3C33.9675 98.43 34.0695 97.02 34.8975 96.294C35.3115 95.928 35.8935 95.76 36.4875 95.82C37.0635 95.886 37.5675 96.168 37.8795 96.594C38.2875 97.158 38.3535 97.884 38.3595 98.454C38.3715 99.636 38.1975 100.806 37.8255 101.934C37.7835 102.06 37.6635 102.144 37.5375 102.144V102.138Z" fill="#263238"/>
<path d="M29.2748 105.936L37.7348 117.672L44.4308 105.402L53.8928 110.856L57.7328 117.546L52.2428 120.39L50.4788 131.268L52.2428 147.108C43.2308 149.592 34.3328 149.658 25.5608 147.108L27.0188 131.454L25.5608 122.19L18.3848 119.514L20.8568 111.942L29.2688 105.93L29.2748 105.936Z" fill="#F83758"/>
<path opacity="0.3" d="M25.5614 122.196L23.7734 115.992V121.53L25.5614 122.196Z" fill="black"/>
<path opacity="0.3" d="M52.2422 120.39L52.9442 114.27L53.9102 119.526L52.2422 120.39Z" fill="black"/>
<path opacity="0.3" d="M33.1816 138.888C33.1816 138.888 43.1056 133.584 45.5836 128.304C45.5836 128.304 43.2316 138.948 33.1816 138.888Z" fill="black"/>
<path d="M96.1679 112.59H65.5979C65.1839 112.59 64.8239 112.32 64.7099 111.924C64.5959 111.522 64.7579 111.108 65.1119 110.886L80.2319 101.484L96.6179 110.934C96.9719 111.138 97.1399 111.54 97.0319 111.936C96.9239 112.332 96.5819 112.596 96.1739 112.596L96.1679 112.59ZM65.4239 111.396C65.2319 111.516 65.2679 111.702 65.2859 111.756C65.3039 111.81 65.3699 111.99 65.5979 111.99H96.1679C96.3719 111.99 96.4319 111.828 96.4439 111.774C96.4559 111.72 96.4859 111.552 96.3119 111.45L80.2379 102.18L65.4239 111.39V111.396Z" fill="#263238"/>
<path d="M80.3461 102.138C80.3161 102.138 80.2861 102.138 80.2561 102.126C80.1001 102.072 80.0101 101.904 80.0641 101.748C80.4121 100.686 80.5801 99.576 80.5681 98.46C80.5681 97.98 80.5141 97.374 80.2021 96.948C79.9921 96.654 79.6381 96.462 79.2301 96.42C78.8041 96.372 78.3901 96.492 78.1021 96.744C77.5141 97.26 77.4421 98.298 77.9521 98.922C78.0541 99.048 78.0361 99.24 77.9101 99.342C77.7841 99.45 77.5921 99.426 77.4901 99.3C76.7761 98.43 76.8781 97.02 77.7061 96.294C78.1201 95.928 78.7021 95.76 79.2961 95.82C79.8721 95.886 80.3761 96.168 80.6881 96.594C81.0961 97.158 81.1621 97.884 81.1681 98.454C81.1801 99.636 81.0061 100.806 80.6341 101.934C80.5921 102.06 80.4781 102.144 80.3461 102.144V102.138Z" fill="#263238"/>
<path d="M72.1675 106.398L70.3555 107.472L71.6755 118.308L72.4915 118.086L72.1675 106.398Z" fill="#263238"/>
<path d="M88.8955 106.44L90.2815 107.232L87.5815 117.888L86.9395 117.654L88.7635 106.656L88.8955 106.44Z" fill="#263238"/>
<path d="M53.9102 192.156C57.6782 197.328 61.4822 199.086 65.0522 199.428C69.0842 199.296 72.2102 196.44 75.3722 192.156C76.1462 190.848 77.4062 190.53 77.7302 192.156L78.4262 194.124C78.5642 194.496 78.9782 194.688 79.3562 194.544C79.5722 194.466 79.7342 194.286 79.8002 194.064L80.2922 192.174C80.4422 191.412 81.1802 190.92 81.9362 191.07C82.4942 191.178 82.9322 191.616 83.0402 192.174L83.6282 195.27C84.5462 197.766 87.1262 201.402 92.8022 201.222C96.7322 201.27 99.6182 196.584 102.534 192.18L88.5842 136.17L71.4482 135.612L53.9102 192.162V192.156Z" fill="#F83758"/>
<path opacity="0.2" d="M82.4584 191.334C82.0924 191.028 81.6004 190.938 81.1504 191.082V159.228L82.4584 191.334Z" fill="black"/>
<path d="M65.8809 119.316L70.8969 116.916C72.1269 116.322 73.5729 116.394 74.7369 117.102L80.0529 120.3L84.4329 117.57C86.0169 116.586 88.0029 116.532 89.6409 117.42L94.5909 120.108L89.3109 138.66L86.3709 139.896C85.6089 140.214 84.7449 140.154 84.0309 139.734L80.8269 137.58C80.1429 137.124 79.2489 137.142 78.5829 137.622L76.4769 139.146C75.6369 139.752 74.5689 139.95 73.5669 139.698L70.3809 138.876L65.8869 119.322L65.8809 119.316Z" fill="#F83758"/>
<path d="M70.3739 138.87L69.5039 135.09C76.5599 136.35 83.4599 136.578 90.1679 135.606L89.4719 139.716C89.4719 139.716 80.0219 141.84 70.8719 138.888" fill="#263238"/>
<g opacity="0.2">
<path d="M71.6465 129.84C72.9185 130.56 74.4305 130.842 75.8825 130.638C77.3285 130.434 78.7025 129.744 79.7345 128.7C79.5425 130.32 78.0125 131.574 76.3925 131.772C74.7725 131.97 73.1465 131.274 71.8925 130.224" fill="black"/>
</g>
<path d="M168.936 121.53C167.04 121.362 163.218 124.686 162.198 125.724C161.178 126.762 153.108 130.266 153.108 130.266L144.144 119.712L140.586 121.638C140.586 121.638 148.47 137.64 149.28 138.546C150.09 139.452 151.416 139.566 153.834 139.224C156.252 138.882 169.872 129.714 169.536 129.6C169.194 129.486 168.948 121.53 168.948 121.53H168.936Z" fill="#B97964"/>
<path d="M144.198 120.258C144.198 120.258 145.266 118.914 145.086 117.51C144.906 116.1 145.14 114.93 144.936 113.892C144.732 112.854 144.024 114.096 143.784 114.828C143.544 115.566 143.262 116.394 142.734 116.124C142.212 115.854 139.47 111.588 138.702 111.294C137.934 111 138.162 111.828 138.162 111.828C138.162 111.828 137.466 110.808 136.992 110.976C136.866 111.018 136.65 111.318 136.89 111.834C137.436 112.986 138.714 115.356 138.714 115.356C138.642 115.218 136.86 112.41 136.542 112.026C136.122 111.522 135.666 111.498 135.384 111.75C134.982 112.11 137.07 115.662 137.052 115.878C137.052 115.878 135.918 113.79 135.216 113.79C134.514 113.79 135.162 115.14 135.954 116.226C136.68 117.222 137.844 119.364 138.684 120.3C139.716 121.458 140.67 122.004 142.056 121.572C143.442 121.14 144.198 120.258 144.198 120.258Z" fill="#B97964"/>
<path opacity="0.3" d="M138.18 117.216C138.132 117.216 138.09 117.192 138.06 117.156C138.012 117.09 138.024 116.994 138.09 116.946C139.014 116.274 140.004 115.686 141.042 115.212C141.114 115.176 141.204 115.212 141.24 115.284C141.276 115.362 141.24 115.446 141.168 115.482C140.148 115.95 139.17 116.526 138.264 117.186C138.24 117.204 138.204 117.216 138.174 117.216H138.18Z" fill="black"/>
<path opacity="0.3" d="M141.39 119.472C141.39 119.472 141.372 119.472 141.366 119.472C141.282 119.46 141.228 119.382 141.24 119.298C141.396 118.338 141.984 117.45 142.806 116.922C142.878 116.88 142.968 116.898 143.016 116.97C143.058 117.042 143.04 117.132 142.968 117.18C142.218 117.66 141.684 118.47 141.54 119.352C141.528 119.424 141.462 119.478 141.39 119.478V119.472Z" fill="black"/>
<path d="M171.841 98.3041L177.181 95.2441C174.223 92.6281 170.737 93.2521 168.475 95.3221C167.155 96.5341 167.437 97.6441 166.513 98.3161C165.445 99.0901 164.293 99.5101 163.435 100.584C162.169 102.174 162.943 104.892 162.037 106.794C161.485 107.952 160.333 108.762 160.225 110.082C160.123 111.342 161.059 112.488 160.939 113.748C160.873 114.432 160.495 115.14 160.747 115.764C160.957 116.292 161.515 116.472 162.001 116.574C165.487 117.282 169.135 116.904 172.459 115.482C172.777 115.344 173.125 115.17 173.269 114.804C173.371 114.546 173.347 114.24 173.317 113.958C172.819 108.744 172.327 103.53 171.829 98.3101L171.841 98.3041Z" fill="#263238"/>
<path d="M178.448 98.52L175.688 95.664C177.373 94.512 179.671 94.752 181.159 96.234C181.987 97.056 182.57 98.214 183.494 98.88C184.562 99.654 185.996 99.72 186.848 100.8C188.114 102.39 187.339 105.108 188.245 107.01C188.797 108.168 189.95 108.978 190.058 110.298C190.16 111.558 189.224 112.704 189.344 113.964C189.41 114.648 189.788 115.356 189.536 115.98C189.326 116.508 188.767 116.688 188.281 116.79C184.795 117.498 181.147 117.12 177.823 115.698C177.505 115.56 177.157 115.386 177.013 115.02C176.911 114.762 176.936 114.456 176.966 114.174C177.464 108.96 177.956 103.74 178.454 98.526L178.448 98.52Z" fill="#263238"/>
<path d="M181.65 120.955C181.65 120.955 179.55 121.987 176.964 124.219C176.424 124.681 175.83 125.083 175.2 125.419C173.502 126.319 171.96 126.835 171.54 126.019C171.444 125.839 171.378 125.647 171.324 125.443C170.97 124.075 171.114 122.149 172.224 121.267C173.472 120.271 174.072 119.425 173.85 118.081C173.73 117.319 173.454 116.533 173.136 115.765L174.576 114.901L179.712 109.717C179.124 112.897 178.95 119.077 181.656 120.961L181.65 120.955Z" fill="#B97964"/>
<path opacity="0.2" d="M173.887 118.368C175.297 117.528 176.851 116.076 176.665 114.414C176.581 113.712 176.431 113.052 176.263 112.626L173.395 116.424C173.629 117.036 173.719 117.444 173.887 118.368Z" fill="black"/>
<path d="M180.697 103.867C180.211 109.147 180.121 111.379 177.397 114.151C173.299 118.315 166.999 116.911 165.913 111.685C164.935 106.975 165.889 99.1386 171.073 96.9186C176.179 94.7346 181.183 98.5926 180.697 103.873V103.867Z" fill="#B97964"/>
<path d="M173.863 105.588C173.839 106.146 173.533 106.602 173.185 106.614C172.837 106.62 172.579 106.176 172.603 105.618C172.627 105.06 172.933 104.604 173.281 104.592C173.629 104.586 173.887 105.03 173.863 105.588Z" fill="#263238"/>
<path d="M168.661 105.571C168.637 106.111 168.331 106.555 167.989 106.561C167.641 106.567 167.383 106.135 167.413 105.595C167.437 105.055 167.743 104.611 168.085 104.605C168.433 104.599 168.691 105.031 168.661 105.571Z" fill="#263238"/>
<path d="M174.967 103.645C174.901 103.651 174.829 103.633 174.781 103.585C173.971 102.835 173.053 103.099 173.041 103.099C172.903 103.141 172.771 103.063 172.735 102.925C172.705 102.787 172.789 102.643 172.927 102.601C172.975 102.589 174.121 102.253 175.135 103.189C175.237 103.285 175.237 103.447 175.135 103.555C175.087 103.609 175.027 103.639 174.961 103.645H174.967Z" fill="#263238"/>
<path d="M166.908 102.924C166.854 102.906 166.812 102.864 166.788 102.81C166.74 102.69 166.8 102.54 166.92 102.474C168.126 101.796 169.02 102.312 169.056 102.336C169.164 102.402 169.188 102.546 169.11 102.672C169.038 102.792 168.888 102.84 168.786 102.78C168.75 102.762 168.054 102.372 167.094 102.912C167.034 102.948 166.968 102.954 166.908 102.936V102.924Z" fill="#263238"/>
<path d="M170.076 105.312C170.076 105.312 169.248 107.286 168.318 108.516C168.156 108.732 168.258 109.044 168.51 109.14C169.164 109.38 169.926 109.164 169.926 109.164L170.076 105.312Z" fill="#A24E3F"/>
<path d="M173.48 104.61L172.268 104.322C172.268 104.322 172.928 105.228 173.48 104.61Z" fill="#263238"/>
<path d="M168.206 104.616L166.994 104.328C166.994 104.328 167.654 105.234 168.206 104.616Z" fill="#263238"/>
<path d="M178.867 105.69C178.867 105.69 176.143 101.592 176.287 98.2744C176.287 98.2744 171.079 96.9184 166.921 102.468C166.261 103.35 165.865 104.826 165.271 106.098C165.271 106.098 165.493 95.6104 174.403 94.7884C183.301 93.9664 188.359 107.886 179.491 111.126C179.491 111.126 180.553 108.252 178.867 105.69Z" fill="#263238"/>
<path d="M182.293 108.168C181.669 109.248 180.655 109.932 179.731 110.16C178.333 110.508 177.613 108.264 178.087 106.866C178.519 105.606 179.887 104.772 181.249 105.048C182.587 105.318 183.007 106.932 182.293 108.168Z" fill="#B97964"/>
<path opacity="0.2" d="M179.348 108.037H179.336C179.252 108.037 179.192 107.959 179.198 107.875C179.234 107.335 179.486 106.819 179.894 106.459C180.302 106.099 180.848 105.919 181.388 105.949C181.472 105.949 181.532 106.027 181.526 106.111C181.526 106.195 181.454 106.261 181.37 106.249C180.914 106.219 180.44 106.381 180.092 106.687C179.744 106.993 179.528 107.437 179.492 107.899C179.492 107.977 179.42 108.037 179.342 108.037H179.348Z" fill="black"/>
<path d="M171.613 110.91C171.463 110.91 171.301 110.892 171.127 110.856C171.049 110.838 170.995 110.76 171.013 110.682C171.031 110.604 171.103 110.544 171.193 110.568C172.603 110.856 173.077 109.644 173.101 109.596C173.131 109.518 173.215 109.482 173.293 109.506C173.371 109.536 173.413 109.62 173.383 109.698C173.383 109.71 172.921 110.916 171.619 110.916L171.613 110.91Z" fill="#263238"/>
<path d="M181.968 110.334C181.968 110.928 181.488 111.408 180.894 111.408C180.3 111.408 179.82 110.928 179.82 110.334C179.82 109.74 180.3 109.26 180.894 109.26C181.488 109.26 181.968 109.74 181.968 110.334Z" fill="#F83758"/>
<path d="M217.314 199.386C213.03 198.42 208.572 198.9 204.234 199.572C196.002 200.85 187.794 202.854 180.27 206.556C171.15 207.816 158.46 207.846 156.084 211.434C179.628 221.478 207.468 210.744 218.136 203.958C219.012 203.4 219.978 202.608 219.924 201.534C219.858 200.292 218.484 199.644 217.32 199.38L217.314 199.386Z" fill="#F83758"/>
<g opacity="0.2">
<path d="M217.314 199.386C213.03 198.42 208.572 198.9 204.234 199.572C196.002 200.85 187.794 202.854 180.27 206.556C171.15 207.816 158.46 207.846 156.084 211.434C179.628 221.478 207.468 210.744 218.136 203.958C219.012 203.4 219.978 202.608 219.924 201.534C219.858 200.292 218.484 199.644 217.32 199.38L217.314 199.386Z" fill="black"/>
</g>
<path d="M190.944 125.472C190.944 125.472 192.702 126.156 194.04 129.93C194.964 132.534 199.68 147.39 199.908 149.856C200.262 153.708 198.264 175.332 198.264 175.332L194.37 174.912C194.37 174.912 192.984 151.602 192.93 151.356C192.876 151.116 186.186 133.284 186.186 133.284L190.944 125.472Z" fill="#B97964"/>
<path d="M196.374 221.328C195.51 218.25 193.44 214.896 193.002 212.406C192.612 210.246 193.122 208.776 192.816 203.796C192.462 197.772 191.496 189.774 188.982 183.864C188.982 183.864 193.878 176.196 189 167.778L185.742 162.432L167.832 162.54L181.62 212.262L196.17 254.07L201.192 253.356C200.694 244.41 198.678 230.226 196.38 221.328H196.374Z" fill="#B97964"/>
<path opacity="0.2" d="M192.725 200.286L180.167 203.724L179.705 205.446L180.185 207.102L180.707 208.974C180.707 208.974 183.371 208.044 186.131 207.168C188.891 206.292 192.881 205.098 192.881 205.098L192.725 200.286Z" fill="black"/>
<path d="M194.37 266.904C194.838 266.214 195.438 265.578 196.134 265.026C196.134 265.026 197.688 262.2 196.452 256.374L199.26 254.37C200.232 253.704 201.48 253.53 202.392 253.938C202.518 253.998 202.632 254.07 202.728 254.16C203.13 254.652 203.49 255.174 203.802 255.72C204.834 257.592 205.716 259.536 206.442 261.546L205.866 261.816L204.024 258.24C203.448 257.004 202.776 259.068 203.01 260.568C203.244 262.068 203.13 263.88 199.554 265.554C195.45 267.492 193.65 268.164 194.364 266.91L194.37 266.904Z" fill="black"/>
<path d="M195.773 252.39C195.773 252.39 196.583 256.944 196.697 260.13C196.871 261.72 196.667 263.388 196.097 265.044C196.097 265.044 198.953 264.186 199.505 262.284C200.057 260.382 199.565 254.958 202.403 253.962C202.037 253.71 201.629 253.506 201.185 253.356L200.867 251.688C199.355 251.892 195.773 252.39 195.773 252.39Z" fill="#B97964"/>
<path d="M187.458 134.388L191.868 125.178C189.882 122.208 180.042 119.928 180.042 119.928L173.562 120.282C173.562 120.282 171.072 120.84 168.936 121.536C166.086 122.466 164.55 123.21 163.872 124.794C163.872 124.794 162.51 128.316 163.398 135.51C163.644 137.496 164.31 149.01 162.498 152.322L162.534 153.234C174.378 162.456 184.398 160.914 184.398 160.914C183.864 159.288 183.918 153.918 183.678 152.322C183.852 150.294 183.78 148.746 184.638 145.188C184.806 144.504 187.176 135.06 187.464 134.394L187.458 134.388Z" fill="#B97964"/>
<path d="M160.225 167.244L158.287 212.55L159.841 256.458L165.301 257.862C167.719 249.186 169.681 232.134 170.245 223.242C170.377 220.194 169.393 216.678 169.735 214.272C170.035 212.16 171.019 210.828 172.309 206.034C173.869 200.238 175.447 192.486 174.817 186.48C174.817 186.48 182.155 179.892 179.983 171.144L160.231 167.238L160.225 167.244Z" fill="#B97964"/>
<path opacity="0.2" d="M158.287 212.55C158.287 212.55 160.417 210.522 164.335 211.116C168.253 211.71 170.107 212.694 170.107 212.694L171.169 209.736L162.193 207.192L158.287 209.124V212.556V212.55Z" fill="black"/>
<path d="M152.965 266.785C153.679 266.359 154.495 266.035 155.359 265.831C155.359 265.831 157.969 263.935 159.313 258.127L162.709 257.503C163.873 257.311 165.079 257.683 165.727 258.439C165.817 258.547 165.889 258.661 165.937 258.781C166.093 259.399 166.195 260.023 166.249 260.647C166.387 262.777 166.363 264.913 166.171 267.043H165.535L165.385 263.023C165.385 261.655 163.903 263.245 163.483 264.703C163.063 266.161 162.187 267.751 158.239 267.751C153.697 267.769 151.783 267.613 152.965 266.773V266.785Z" fill="black"/>
<path d="M159.96 256.044C159.96 256.044 159.192 258.696 157.944 261.636C157.428 263.148 156.54 264.57 155.316 265.83C155.316 265.83 158.268 266.262 159.576 264.78C160.884 263.292 162.738 258.168 165.726 258.474C165.504 258.096 165.216 257.736 164.88 257.406C164.394 256.866 159.954 256.05 159.954 256.05L159.96 256.044Z" fill="#B97964"/>
<path d="M194.592 174.834C194.592 174.834 193.032 175.542 192.546 176.874C192.06 178.206 191.322 179.142 191.028 180.162C190.734 181.176 191.934 180.396 192.48 179.856C193.032 179.31 193.662 178.698 194.004 179.178C194.346 179.658 194.844 184.704 195.39 185.316C195.942 185.928 196.116 185.088 196.116 185.088C196.116 185.088 196.272 186.312 196.77 186.378C196.902 186.396 197.232 186.228 197.25 185.658C197.292 184.38 197.232 181.698 197.232 181.698C197.232 181.854 197.538 185.16 197.646 185.652C197.79 186.294 198.186 186.522 198.552 186.426C199.074 186.288 198.834 182.172 198.948 181.992C198.948 181.992 199.008 184.368 199.626 184.686C200.25 185.004 200.292 183.51 200.082 182.184C199.89 180.966 199.824 178.53 199.512 177.312C199.122 175.812 198.522 174.894 197.088 174.642C195.654 174.396 194.586 174.834 194.586 174.834H194.592Z" fill="#B97964"/>
<path d="M158.189 167.076C155.729 179.274 155.699 200.862 156.083 211.434C156.083 211.434 161.459 206.748 170.069 209.892C178.679 213.036 182.351 213.096 186.689 211.722C191.021 210.348 194.423 203.49 206.927 201.09C219.431 198.69 219.905 201.408 219.905 201.408C219.905 201.408 221.405 198.294 215.153 196.116C208.901 193.944 201.413 186.48 197.795 181.734C194.177 176.988 187.379 162.774 185.585 159.126C183.689 155.28 183.809 151.056 183.809 151.056L163.199 149.082C163.199 149.082 160.163 157.326 158.195 167.076H158.189Z" fill="#263238"/>
<path d="M181.968 120.426L179.082 122.742C175.956 125.25 171.684 124.362 169.236 121.194C166.134 121.98 164.652 122.472 164.652 122.472C164.652 122.472 162.51 128.31 163.398 135.504C163.644 137.49 164.31 149.004 162.498 152.316L162.534 153.228C174.378 162.45 184.398 160.908 184.398 160.908C183.864 159.282 183.984 153.63 183.744 152.04C183.918 150.012 183.78 148.746 184.638 145.188C184.806 144.504 187.794 135.648 188.082 134.982L191.736 124.77C189.03 122.022 181.968 120.432 181.968 120.432V120.426Z" fill="#263238"/>
<path d="M162.281 152.226L184.133 154.068L184.139 149.826L163.445 148.05L162.281 152.226Z" fill="#F83758"/>
<path d="M155.902 128.142L160.45 137.238L164.35 134.748L166.996 122.088C166.996 122.088 164.614 122.07 162.676 123.546C160.846 124.938 155.902 128.142 155.902 128.142Z" fill="#263238"/>
<path opacity="0.2" d="M163.38 135.36C163.38 135.36 163.068 132.558 163.23 130.026L163.398 127.494C163.398 127.494 161.586 133.482 161.832 136.356L163.386 135.36H163.38Z" fill="black"/>
<path d="M186.377 134.97L188.405 142.134L196.955 136.842C196.955 136.842 193.979 124.866 191.099 124.506C188.219 124.146 186.371 134.97 186.371 134.97H186.377Z" fill="#263238"/>
<path opacity="0.2" d="M187.133 137.634L188.807 131.622L187.937 140.46L187.133 137.634Z" fill="black"/>
<path d="M224.119 175.974H114.703V267.966H224.119V175.974Z" fill="#F83758"/>
<path opacity="0.2" d="M224.119 175.974H114.703V267.966H224.119V175.974Z" fill="black"/>
<path d="M118.188 171.528L122.868 142.512H143.712L148.955 171.228L118.188 171.528Z" fill="#F83758"/>
<path opacity="0.3" d="M118.188 171.528L122.868 142.512H143.712L148.955 171.228L118.188 171.528Z" fill="white"/>
<path opacity="0.3" d="M140.771 171.156L148.955 171.228L143.711 142.512L140.771 171.156Z" fill="black"/>
<path d="M129.197 144.576C129.197 145.098 128.771 145.524 128.249 145.524C127.727 145.524 127.301 145.098 127.301 144.576C127.301 144.054 127.727 143.628 128.249 143.628C128.771 143.628 129.197 144.054 129.197 144.576Z" fill="#263238"/>
<path d="M138.347 144.576C138.347 145.098 137.921 145.524 137.399 145.524C136.877 145.524 136.451 145.098 136.451 144.576C136.451 144.054 136.877 143.628 137.399 143.628C137.921 143.628 138.347 144.054 138.347 144.576Z" fill="#263238"/>
<path d="M128.411 144.27C128.411 142.692 128.417 141.03 129.263 139.638C130.109 138.246 131.633 137.664 133.223 137.664C134.813 137.664 136.235 138.246 136.835 139.788C137.435 141.33 137.081 142.944 137.093 144.51C137.093 144.798 137.543 144.798 137.543 144.51C137.531 143.07 137.801 141.594 137.435 140.178C137.141 139.056 136.457 138.072 135.371 137.598C133.079 136.608 130.001 137.346 128.771 139.59C127.991 141.018 127.967 142.674 127.967 144.264C127.967 144.552 128.417 144.552 128.417 144.264L128.411 144.27Z" fill="#263238"/>
<path opacity="0.1" d="M144.563 169.668L143.711 142.512L140.771 171.156L144.563 169.668Z" fill="black"/>
<path d="M136.62 156.834H125.568L126.006 154.2H137.058L136.62 156.834Z" fill="white"/>
<path opacity="0.3" d="M224.119 175.194H114.703V180.636H224.119V175.194Z" fill="black"/>
<path d="M227.694 170.592H109.65V176.682H227.694V170.592Z" fill="#F83758"/>
<path d="M177.827 208.332H156.293V222.048H177.827V208.332Z" fill="#263238"/>
<path opacity="0.3" d="M177.827 208.332H156.293V222.048H177.827V208.332Z" fill="white"/>
<path d="M179.184 206.784H154.932V212.526H179.184V206.784Z" fill="#263238"/>
<path opacity="0.3" d="M179.184 206.784H154.932V212.526H179.184V206.784Z" fill="white"/>
<path opacity="0.3" d="M177.827 212.574H156.293V213.99H177.827V212.574Z" fill="black"/>
<path opacity="0.3" d="M170.502 208.602H163.614C163.239 208.602 162.936 208.906 162.936 209.28V210.006C162.936 210.38 163.239 210.684 163.614 210.684H170.502C170.876 210.684 171.18 210.38 171.18 210.006V209.28C171.18 208.906 170.876 208.602 170.502 208.602Z" fill="black"/>
<path d="M184.344 221.97H89.8496V267.966H184.344V221.97Z" fill="#263238"/>
<path d="M102.305 208.62L101.855 208.596C101.873 208.272 101.885 207.924 101.903 207.57C101.999 205.254 102.125 202.368 103.367 200.43C104.657 198.42 106.841 197.226 109.865 196.872C112.595 196.554 115.355 197.712 116.903 199.818C118.595 202.116 118.721 205.158 118.703 208.08H118.253C118.265 205.236 118.145 202.278 116.537 200.088C115.079 198.108 112.481 197.022 109.913 197.322C107.033 197.658 104.957 198.786 103.739 200.676C102.557 202.512 102.443 205.332 102.347 207.594C102.329 207.948 102.317 208.296 102.299 208.62H102.305Z" fill="#263238"/>
<path d="M121.896 221.971H98.6699L101.058 206.875H120.006L121.896 221.971Z" fill="#F83758"/>
<path opacity="0.3" d="M101.059 206.875C101.059 206.875 103.915 214.393 110.281 214.423C116.647 214.453 120.007 206.875 120.007 206.875C120.007 206.875 116.887 215.88 110.281 215.748C103.675 215.61 101.059 206.875 101.059 206.875Z" fill="black"/>
<path d="M112.255 211.687H108.475V212.419H112.255V211.687Z" fill="#263238"/>
<path d="M151.361 220.71C150.569 220.236 149.669 219.876 148.703 219.648C148.403 219.69 145.367 220.044 143.981 218.466C142.523 216.804 140.459 211.086 137.123 211.422C137.147 211.386 137.171 211.35 137.195 211.314C137.171 211.338 137.147 211.362 137.123 211.386C137.021 211.506 136.943 211.632 136.889 211.77C136.715 212.46 136.601 213.156 136.541 213.852C136.385 216.234 136.493 219.42 136.703 221.796H137.411L137.507 216.51C137.507 214.986 139.157 216.756 139.631 218.382C140.099 220.008 141.077 221.79 145.481 221.796C150.551 221.82 152.681 221.652 151.373 220.716L151.361 220.71Z" fill="#F83758"/>
<path opacity="0.1" d="M151.361 220.71C150.569 220.236 149.669 219.876 148.703 219.648C148.403 219.69 145.367 220.044 143.981 218.466C142.523 216.804 140.459 211.086 137.123 211.422C137.147 211.386 137.171 211.35 137.195 211.314C137.171 211.338 137.147 211.362 137.123 211.386C137.021 211.506 136.943 211.632 136.889 211.77C136.715 212.46 136.601 213.156 136.541 213.852C136.385 216.234 136.493 219.42 136.703 221.796H137.411L137.507 216.51C137.507 214.986 139.157 216.756 139.631 218.382C140.099 220.008 141.077 221.79 145.481 221.796C150.551 221.82 152.681 221.652 151.373 220.716L151.361 220.71Z" fill="black"/>
<path d="M142.998 220.71C142.206 220.236 141.306 219.876 140.34 219.648C140.04 219.69 137.004 220.044 135.618 218.466C134.16 216.804 132.096 211.086 128.76 211.422C128.784 211.386 128.808 211.35 128.832 211.314C128.808 211.338 128.784 211.362 128.76 211.386C128.658 211.506 128.58 211.632 128.526 211.77C128.352 212.46 128.238 213.156 128.178 213.852C128.022 216.234 128.13 219.42 128.34 221.796H129.048L129.144 216.51C129.144 214.986 130.794 216.756 131.268 218.382C131.736 220.008 132.714 221.79 137.118 221.796C142.188 221.82 144.318 221.652 143.01 220.716L142.998 220.71Z" fill="#F83758"/>
</svg>
