<svg width="350" height="350" viewBox="0 0 350 350" fill="none" xmlns="http://www.w3.org/2000/svg">
<path d="M350 267.68H0V267.855H350V267.68Z" fill="#EBEBEB"/>
<path d="M314.93 278.943H291.746V279.118H314.93V278.943Z" fill="#EBEBEB"/>
<path d="M231.854 280.847H225.771V281.022H231.854V280.847Z" fill="#EBEBEB"/>
<path d="M291.046 272.447H277.613V272.622H291.046V272.447Z" fill="#EBEBEB"/>
<path d="M66.9557 273.623H36.7227V273.798H66.9557V273.623Z" fill="#EBEBEB"/>
<path d="M77.6224 273.623H73.1914V273.798H77.6224V273.623Z" fill="#EBEBEB"/>
<path d="M157.605 276.577H92.0293V276.752H157.605V276.577Z" fill="#EBEBEB"/>
<path d="M165.899 236.46H30.7361C29.6772 236.458 28.6624 236.036 27.9143 235.287C27.1662 234.537 26.7461 233.522 26.7461 232.463V42.462C26.7553 41.4092 27.1795 40.4026 27.9266 39.6608C28.6737 38.9189 29.6833 38.5018 30.7361 38.5H165.899C166.959 38.5 167.976 38.9211 168.725 39.6707C169.475 40.4203 169.896 41.4369 169.896 42.497V232.463C169.896 233.523 169.475 234.54 168.725 235.289C167.976 236.039 166.959 236.46 165.899 236.46ZM30.7361 38.64C29.7237 38.6419 28.7533 39.0453 28.0381 39.7619C27.3228 40.4785 26.9211 41.4496 26.9211 42.462V232.463C26.9211 233.475 27.3228 234.447 28.0381 235.163C28.7533 235.88 29.7237 236.283 30.7361 236.285H165.899C166.912 236.283 167.883 235.88 168.6 235.164C169.316 234.447 169.719 233.476 169.721 232.463V42.462C169.719 41.4489 169.316 40.4778 168.6 39.7615C167.883 39.0451 166.912 38.6419 165.899 38.64H30.7361Z" fill="#EBEBEB"/>
<path d="M317.317 236.46H182.147C181.088 236.458 180.072 236.036 179.323 235.287C178.574 234.538 178.152 233.522 178.15 232.463V42.462C178.161 41.4086 178.587 40.402 179.335 39.6603C180.084 38.9187 181.094 38.5018 182.147 38.5H317.317C318.369 38.5036 319.377 38.9216 320.122 39.6632C320.868 40.4048 321.291 41.4104 321.3 42.462V232.463C321.3 233.521 320.881 234.535 320.135 235.284C319.388 236.034 318.375 236.456 317.317 236.46ZM182.147 38.64C181.134 38.6419 180.163 39.0451 179.447 39.7615C178.731 40.4778 178.327 41.4489 178.325 42.462V232.463C178.327 233.476 178.731 234.447 179.447 235.164C180.163 235.88 181.134 236.283 182.147 236.285H317.317C318.33 236.283 319.302 235.88 320.018 235.164C320.734 234.447 321.138 233.476 321.139 232.463V42.462C321.138 41.4489 320.734 40.4778 320.018 39.7615C319.302 39.0451 318.33 38.6419 317.317 38.64H182.147Z" fill="#EBEBEB"/>
<path d="M233.864 266C233.354 266.002 232.866 266.206 232.507 266.566C232.147 266.927 231.946 267.416 231.946 267.925H251.238C251.238 267.415 251.035 266.925 250.674 266.564C250.313 266.203 249.823 266 249.313 266H243.909V233.1H248.109V189H243.909V175.7H117.349V189H114.451V233.1H117.349V266H111.945C111.434 266 110.944 266.203 110.583 266.564C110.222 266.925 110.02 267.415 110.02 267.925H129.312C129.312 267.417 129.111 266.93 128.753 266.569C128.395 266.208 127.909 266.004 127.401 266H121.99V233.1H239.275V266H233.864ZM121.983 189V180.18H239.275V189H121.983Z" fill="#E0E0E0"/>
<path d="M299.256 116.655H267.945V159.327H281.931V267.925H285.263V159.327H299.256V116.655Z" fill="#F0F0F0"/>
<path d="M127.155 66.43V102.011H58.1348V66.43H62.3908V55.832H64.6518V66.43H120.638V55.832H122.899V66.43H127.155Z" fill="#F0F0F0"/>
<path d="M231.125 66.43V102.011H162.105V66.43H166.361V55.832H168.622V66.43H224.601V55.832H226.869V66.43H231.125Z" fill="#F0F0F0"/>
<path d="M173.599 266C173.089 266 172.599 266.203 172.238 266.564C171.877 266.925 171.674 267.415 171.674 267.925H190.959C190.959 267.416 190.757 266.927 190.398 266.566C190.038 266.206 189.55 266.002 189.041 266H183.63V233.1H187.83V189H183.63V175.7H57.0701V189H54.1721V233.1H57.0701V266H51.6661C51.4136 266 51.1636 266.05 50.9305 266.147C50.6973 266.244 50.4855 266.386 50.3073 266.564C50.1292 266.743 49.988 266.956 49.892 267.189C49.7961 267.423 49.7471 267.673 49.7481 267.925H69.0401C69.0401 267.415 68.8373 266.925 68.4762 266.564C68.1152 266.203 67.6256 266 67.1151 266H61.7111V233.1H178.996V266H173.599ZM61.7111 189V180.18H178.996V189H61.7111Z" fill="#EBEBEB"/>
<path d="M175 299.292C249.958 299.292 310.723 295.744 310.723 291.368C310.723 286.992 249.958 283.444 175 283.444C100.043 283.444 39.2773 286.992 39.2773 291.368C39.2773 295.744 100.043 299.292 175 299.292Z" fill="#F5F5F5"/>
<path d="M286.209 273.098C286.209 273.098 287.197 265.839 291.845 265.041C296.493 264.243 295.086 260.736 296.297 259.378C297.508 258.02 300.665 262.031 297.963 265.916C295.261 269.801 297.466 268.576 296.297 272.216C295.128 275.856 285.782 279.118 286.209 273.098Z" fill="#263238"/>
<path d="M286.398 278.103C286.359 278.113 286.318 278.113 286.279 278.103C286.244 278.087 286.213 278.064 286.187 278.036C286.161 278.008 286.141 277.975 286.128 277.939C286.115 277.904 286.109 277.866 286.111 277.827C286.113 277.789 286.122 277.752 286.139 277.718C286.174 277.648 289.639 270.249 287.805 258.419C287.22 255.014 286.282 251.681 285.005 248.472C282.8 242.466 280.896 237.272 285.061 228.207C286.349 225.407 287.665 222.789 288.932 220.262C293.629 210.938 297.332 203.567 294.637 196.245C294.622 196.209 294.615 196.17 294.615 196.132C294.616 196.093 294.624 196.055 294.64 196.02C294.655 195.984 294.678 195.952 294.706 195.926C294.735 195.9 294.768 195.879 294.804 195.866C294.841 195.853 294.879 195.847 294.918 195.849C294.956 195.851 294.994 195.861 295.029 195.878C295.064 195.895 295.094 195.919 295.12 195.948C295.145 195.978 295.164 196.012 295.176 196.049C297.976 203.602 294.21 211.071 289.45 220.549C288.183 223.069 286.867 225.673 285.579 228.473C281.519 237.321 283.297 242.165 285.544 248.297C286.838 251.524 287.795 254.876 288.4 258.3C290.262 270.326 286.72 277.865 286.685 277.942C286.659 277.995 286.618 278.038 286.567 278.067C286.515 278.096 286.456 278.108 286.398 278.103Z" fill="#263238"/>
<path d="M289.1 276.367C289.1 276.367 292.103 271.838 287.77 269.514C283.437 267.19 282.569 269.059 279.888 267.414C277.207 265.769 275.177 261.688 274.722 264.278C274.267 266.868 277.361 268.352 276.269 269.535C275.177 270.718 283.535 278.404 289.1 276.367Z" fill="#263238"/>
<path d="M296.163 199.899C296.163 199.899 299.089 191.009 292.439 190.799C285.789 190.589 293.118 198.947 296.163 199.899Z" fill="#263238"/>
<path d="M290.389 206.731C290.389 206.731 288.408 198.646 283.683 200.354C278.958 202.062 285.678 206.878 290.389 206.731Z" fill="#263238"/>
<path d="M298.397 207.431C298.397 207.431 297.697 200.984 302.695 200.851C307.693 200.718 305.474 206.388 298.397 207.431Z" fill="#263238"/>
<path d="M295.064 220.591C295.064 220.591 301.784 214.592 304.206 219.058C306.628 223.524 299.131 224.448 295.064 220.591Z" fill="#263238"/>
<path d="M283.165 219.527C283.165 219.527 281.905 209.573 276.473 212.695C271.041 215.817 278.44 220.5 283.165 219.527Z" fill="#263238"/>
<path d="M278.389 233.8C278.389 233.8 282.393 223.741 274.945 224.875C267.497 226.009 273.132 231.336 278.389 233.8Z" fill="#263238"/>
<path d="M289.801 237.363C289.801 237.363 296.101 229.957 300.896 232.302C305.691 234.647 301.799 242.025 289.801 237.363Z" fill="#263238"/>
<path d="M284.109 253.785C284.109 253.785 278.747 241.885 273.98 245.896C269.213 249.907 277.025 255.906 284.109 253.785Z" fill="#263238"/>
<path d="M291.9 253.092C291.9 253.092 290.5 243.859 295.792 244.601C301.084 245.343 299.705 250.992 291.9 253.092Z" fill="#263238"/>
<g opacity="0.2">
<path d="M296.163 199.899C296.163 199.899 299.089 191.009 292.439 190.799C285.789 190.589 293.118 198.947 296.163 199.899Z" fill="white"/>
<path d="M290.387 206.731C290.387 206.731 288.406 198.646 283.681 200.354C278.956 202.062 285.676 206.878 290.387 206.731Z" fill="white"/>
<path d="M298.395 207.431C298.395 207.431 297.695 200.984 302.693 200.851C307.691 200.718 305.472 206.388 298.395 207.431Z" fill="white"/>
<path d="M295.062 220.591C295.062 220.591 301.782 214.592 304.204 219.058C306.626 223.524 299.129 224.448 295.062 220.591Z" fill="white"/>
<path d="M283.163 219.527C283.163 219.527 281.903 209.573 276.471 212.695C271.039 215.817 278.438 220.5 283.163 219.527Z" fill="white"/>
<path d="M278.389 233.8C278.389 233.8 282.393 223.741 274.945 224.875C267.497 226.009 273.132 231.336 278.389 233.8Z" fill="white"/>
<path d="M289.799 237.363C289.799 237.363 296.099 229.957 300.894 232.302C305.689 234.647 301.797 242.025 289.799 237.363Z" fill="white"/>
<path d="M284.109 253.785C284.109 253.785 278.747 241.885 273.98 245.896C269.213 249.907 277.025 255.906 284.109 253.785Z" fill="white"/>
<path d="M291.9 253.092C291.9 253.092 290.5 243.859 295.792 244.601C301.084 245.343 299.705 250.992 291.9 253.092Z" fill="white"/>
</g>
<path d="M293.299 212.051H293.215C293.178 212.04 293.142 212.021 293.112 211.996C293.082 211.971 293.058 211.939 293.04 211.904C293.04 211.855 290.464 206.969 288.539 205.814C288.5 205.798 288.465 205.773 288.436 205.742C288.407 205.711 288.385 205.674 288.372 205.634C288.359 205.594 288.355 205.551 288.359 205.509C288.364 205.467 288.378 205.426 288.4 205.39C288.422 205.353 288.451 205.322 288.487 205.298C288.522 205.275 288.562 205.259 288.603 205.252C288.645 205.245 288.688 205.247 288.729 205.258C288.77 205.27 288.808 205.29 288.84 205.317C290.653 206.409 292.837 210.308 293.411 211.372C297.093 209.202 299.809 205.212 299.837 205.17C299.859 205.139 299.886 205.112 299.917 205.091C299.949 205.07 299.984 205.056 300.021 205.049C300.058 205.042 300.096 205.042 300.133 205.049C300.17 205.057 300.205 205.072 300.236 205.093C300.268 205.114 300.295 205.141 300.315 205.173C300.336 205.204 300.35 205.239 300.358 205.276C300.365 205.313 300.365 205.352 300.357 205.388C300.349 205.425 300.335 205.461 300.313 205.492C300.194 205.667 297.366 209.825 293.439 212.023C293.397 212.045 293.348 212.055 293.299 212.051Z" fill="#263238"/>
<path d="M287.188 224.399H287.132C287.092 224.392 287.053 224.377 287.02 224.354C286.986 224.331 286.957 224.301 286.936 224.266C286.936 224.21 283.73 218.876 279.649 216.475C279.583 216.437 279.535 216.374 279.516 216.301C279.496 216.227 279.506 216.149 279.544 216.083C279.584 216.017 279.648 215.968 279.722 215.949C279.797 215.929 279.876 215.94 279.943 215.978C283.66 218.169 286.551 222.551 287.272 223.678C293.005 219.478 300.159 219.695 300.229 219.688C300.268 219.689 300.305 219.697 300.34 219.713C300.375 219.729 300.407 219.751 300.433 219.779C300.459 219.807 300.479 219.84 300.492 219.876C300.505 219.912 300.511 219.951 300.509 219.989C300.508 220.027 300.5 220.064 300.485 220.098C300.47 220.133 300.448 220.164 300.42 220.19C300.393 220.216 300.361 220.236 300.326 220.25C300.291 220.263 300.253 220.27 300.215 220.269C300.145 220.269 292.97 220.094 287.363 224.329C287.314 224.37 287.253 224.394 287.188 224.399Z" fill="#263238"/>
<path d="M283.304 240.723C283.238 240.722 283.174 240.7 283.122 240.66C279.125 237.447 276.052 229.46 275.926 229.117C275.897 229.041 275.9 228.956 275.933 228.882C275.967 228.808 276.028 228.75 276.105 228.721C276.181 228.693 276.265 228.695 276.339 228.729C276.413 228.762 276.471 228.824 276.5 228.9C276.5 228.977 279.559 236.873 283.367 240.1C284.627 239.4 292.012 235.361 297.668 235.249C297.743 235.249 297.815 235.278 297.869 235.331C297.922 235.383 297.953 235.454 297.955 235.529C297.957 235.567 297.951 235.605 297.938 235.64C297.925 235.676 297.904 235.709 297.878 235.736C297.852 235.764 297.82 235.785 297.786 235.8C297.751 235.815 297.713 235.823 297.675 235.823C291.753 235.942 283.563 240.646 283.479 240.723C283.422 240.742 283.361 240.742 283.304 240.723Z" fill="#263238"/>
<path d="M288.043 257.6C287.998 257.6 287.954 257.589 287.913 257.569C287.873 257.548 287.838 257.518 287.812 257.481C285.515 254.705 282.426 252.695 278.957 251.72C278.884 251.698 278.822 251.649 278.786 251.582C278.749 251.515 278.74 251.436 278.761 251.363C278.783 251.289 278.832 251.228 278.899 251.191C278.966 251.154 279.045 251.145 279.118 251.167C282.619 252.143 285.75 254.139 288.113 256.9C291.032 254.975 294.882 247.513 294.917 247.436C294.958 247.378 295.019 247.337 295.088 247.32C295.156 247.303 295.229 247.311 295.292 247.344C295.355 247.376 295.404 247.43 295.431 247.496C295.457 247.562 295.459 247.635 295.435 247.702C295.267 248.031 291.277 255.766 288.19 257.502C288.153 257.549 288.101 257.583 288.043 257.6Z" fill="#263238"/>
<path d="M288.625 275.282C288.625 275.282 291.194 271.187 294.106 270.606C297.018 270.025 298.264 266.672 299.335 268.688C300.406 270.704 297.452 277.375 288.625 275.282Z" fill="#263238"/>
<path d="M301.98 291.368H273.875L271.992 274.029H303.856L301.98 291.368Z" fill="#F83758"/>
<path d="M304.514 277.312H271.334L270.914 273.644H304.941L304.514 277.312Z" fill="#F83758"/>
<path opacity="0.3" d="M304.514 277.312H271.334L270.914 273.644H304.941L304.514 277.312Z" fill="white"/>
<path d="M83.8942 197.001C87.4947 205.15 89.6275 213.87 90.1942 222.761C90.229 223.442 90.0279 224.113 89.625 224.663C89.222 225.213 88.6418 225.606 87.9822 225.778C87.7252 225.852 87.4586 225.887 87.1912 225.883H73.6602V285.754H82.7602C83.4895 285.763 84.1865 286.056 84.7029 286.571C85.2193 287.086 85.5143 287.783 85.5252 288.512H57.7982C57.8092 287.777 58.1091 287.075 58.633 286.559C59.1569 286.043 59.8628 285.754 60.5982 285.754H69.6982V225.883H56.1392C55.8717 225.887 55.6052 225.852 55.3482 225.778C54.6892 225.606 54.1098 225.212 53.708 224.662C53.3062 224.113 53.1066 223.441 53.1432 222.761C53.7101 213.87 55.8429 205.15 59.4432 197.001C61.0415 193.31 61.7926 189.308 61.6412 185.289C61.4898 181.269 60.4397 177.335 58.5682 173.775C55.4252 167.797 52.4992 161.595 53.1502 160.286C54.4732 157.626 55.7962 156.338 62.4042 155.568C66.7232 155.057 67.5562 152.53 67.6122 150.857C67.6245 150.442 67.5464 150.029 67.3832 149.647C67.2201 149.265 66.9757 148.923 66.6672 148.645C60.5982 143.122 60.2692 130.445 70.5102 128.842V128.667C70.8532 128.667 71.2102 128.667 71.4972 128.702H71.8262C72.1552 128.702 72.4842 128.667 72.8202 128.667V128.842C83.0682 130.473 82.7322 143.122 76.6702 148.645C76.3631 148.924 76.1197 149.266 75.9567 149.648C75.7936 150.03 75.7147 150.442 75.7252 150.857C75.7812 152.53 76.6142 155.057 80.9332 155.568C87.5482 156.338 88.8642 157.626 90.1872 160.286C90.8382 161.595 87.9192 167.797 84.7762 173.775C82.9035 177.335 81.8522 181.269 81.6996 185.288C81.5469 189.307 82.2968 193.31 83.8942 197.001Z" fill="#263238"/>
<path opacity="0.4" d="M83.8942 197.001C87.4947 205.15 89.6275 213.87 90.1942 222.761C90.229 223.442 90.0279 224.113 89.625 224.663C89.222 225.213 88.6418 225.606 87.9822 225.778C87.7252 225.852 87.4586 225.887 87.1912 225.883H73.6602V285.754H82.7602C83.4895 285.763 84.1865 286.056 84.7029 286.571C85.2193 287.086 85.5143 287.783 85.5252 288.512H57.7982C57.8092 287.777 58.1091 287.075 58.633 286.559C59.1569 286.043 59.8628 285.754 60.5982 285.754H69.6982V225.883H56.1392C55.8717 225.887 55.6052 225.852 55.3482 225.778C54.6892 225.606 54.1098 225.212 53.708 224.662C53.3062 224.113 53.1066 223.441 53.1432 222.761C53.7101 213.87 55.8429 205.15 59.4432 197.001C61.0415 193.31 61.7926 189.308 61.6412 185.289C61.4898 181.269 60.4397 177.335 58.5682 173.775C55.4252 167.797 52.4992 161.595 53.1502 160.286C54.4732 157.626 55.7962 156.338 62.4042 155.568C66.7232 155.057 67.5562 152.53 67.6122 150.857C67.6245 150.442 67.5464 150.029 67.3832 149.647C67.2201 149.265 66.9757 148.923 66.6672 148.645C60.5982 143.122 60.2692 130.445 70.5102 128.842V128.667C70.8532 128.667 71.2102 128.667 71.4972 128.702H71.8262C72.1552 128.702 72.4842 128.667 72.8202 128.667V128.842C83.0682 130.473 82.7322 143.122 76.6702 148.645C76.3631 148.924 76.1197 149.266 75.9567 149.648C75.7936 150.03 75.7147 150.442 75.7252 150.857C75.7812 152.53 76.6142 155.057 80.9332 155.568C87.5482 156.338 88.8642 157.626 90.1872 160.286C90.8382 161.595 87.9192 167.797 84.7762 173.775C82.9035 177.335 81.8522 181.269 81.6996 185.288C81.5469 189.307 82.2968 193.31 83.8942 197.001Z" fill="white"/>
<path d="M83.8942 197.001C87.4947 205.15 89.6275 213.87 90.1942 222.761C90.229 223.442 90.0279 224.113 89.625 224.663C89.222 225.213 88.6418 225.606 87.9822 225.778H55.3482C54.6892 225.606 54.1098 225.212 53.708 224.662C53.3062 224.113 53.1066 223.441 53.1432 222.761C53.7101 213.87 55.8429 205.15 59.4432 197.001C61.0415 193.31 61.7926 189.308 61.6412 185.289C61.4898 181.269 60.4397 177.335 58.5682 173.775C55.4252 167.797 52.4992 161.595 53.1502 160.286C54.4732 157.626 55.7962 156.338 62.4042 155.568C66.7232 155.057 67.5562 152.53 67.6122 150.857C67.6245 150.442 67.5464 150.029 67.3832 149.647C67.2201 149.265 66.9757 148.923 66.6672 148.645C60.5982 143.122 60.2692 130.445 70.5102 128.842V128.667C70.8532 128.667 71.2102 128.667 71.4972 128.702H71.8262C72.1552 128.702 72.4842 128.667 72.8202 128.667V128.842C83.0682 130.473 82.7322 143.122 76.6702 148.645C76.3631 148.924 76.1197 149.266 75.9567 149.648C75.7936 150.03 75.7147 150.442 75.7252 150.857C75.7812 152.53 76.6142 155.057 80.9332 155.568C87.5482 156.338 88.8642 157.626 90.1872 160.286C90.8382 161.595 87.9192 167.797 84.7762 173.775C82.9035 177.335 81.8522 181.269 81.6996 185.288C81.5469 189.307 82.2968 193.31 83.8942 197.001Z" fill="#F83758"/>
<path opacity="0.7" d="M83.8942 197.001C87.4947 205.15 89.6275 213.87 90.1942 222.761C90.229 223.442 90.0279 224.113 89.625 224.663C89.222 225.213 88.6418 225.606 87.9822 225.778H55.3482C54.6892 225.606 54.1098 225.212 53.708 224.662C53.3062 224.113 53.1066 223.441 53.1432 222.761C53.7101 213.87 55.8429 205.15 59.4432 197.001C61.0415 193.31 61.7926 189.308 61.6412 185.289C61.4898 181.269 60.4397 177.335 58.5682 173.775C55.4252 167.797 52.4992 161.595 53.1502 160.286C54.4732 157.626 55.7962 156.338 62.4042 155.568C66.7232 155.057 67.5562 152.53 67.6122 150.857C67.6245 150.442 67.5464 150.029 67.3832 149.647C67.2201 149.265 66.9757 148.923 66.6672 148.645C60.5982 143.122 60.2692 130.445 70.5102 128.842V128.667C70.8532 128.667 71.2102 128.667 71.4972 128.702H71.8262C72.1552 128.702 72.4842 128.667 72.8202 128.667V128.842C83.0682 130.473 82.7322 143.122 76.6702 148.645C76.3631 148.924 76.1197 149.266 75.9567 149.648C75.7936 150.03 75.7147 150.442 75.7252 150.857C75.7812 152.53 76.6142 155.057 80.9332 155.568C87.5482 156.338 88.8642 157.626 90.1872 160.286C90.8382 161.595 87.9192 167.797 84.7762 173.775C82.9035 177.335 81.8522 181.269 81.6996 185.288C81.5469 189.307 82.2968 193.31 83.8942 197.001Z" fill="white"/>
<path d="M230.245 46.8442H198.941C197.528 46.8442 196.129 47.1225 194.823 47.6632C193.518 48.2039 192.332 48.9964 191.333 49.9955C190.334 50.9945 189.541 52.1806 189.001 53.4859C188.46 54.7913 188.182 56.1903 188.182 57.6032V88.0252C188.182 89.4381 188.46 90.8372 189.001 92.1425C189.541 93.4479 190.334 94.6339 191.333 95.633C192.332 96.6321 193.518 97.4246 194.823 97.9653C196.129 98.5059 197.528 98.7842 198.941 98.7842H201.097L201.293 106.771L208.335 98.7842H230.245C231.658 98.7842 233.057 98.5059 234.362 97.9653C235.667 97.4246 236.853 96.6321 237.852 95.633C238.851 94.6339 239.644 93.4479 240.185 92.1425C240.725 90.8372 241.004 89.4381 241.004 88.0252V57.6032C241.004 54.7498 239.87 52.0132 237.852 49.9955C235.835 47.9778 233.098 46.8442 230.245 46.8442Z" fill="#F83758"/>
<path opacity="0.7" d="M226.01 87.3954H203.176L204.87 66.8924L204.023 62.8184H225.163L224.316 66.8924L226.01 87.3954Z" fill="white"/>
<path d="M220.857 64.1692C220.675 59.9692 217.938 56.6582 214.592 56.6582C211.246 56.6582 208.502 59.9902 208.327 64.1692C208.257 64.2154 208.2 64.2777 208.16 64.3509C208.119 64.424 208.098 64.5058 208.096 64.5892C208.096 64.7303 208.152 64.8656 208.252 64.9654C208.351 65.0652 208.487 65.1212 208.628 65.1212C208.769 65.1212 208.904 65.0652 209.004 64.9654C209.104 64.8656 209.16 64.7303 209.16 64.5892C209.158 64.5117 209.139 64.4357 209.104 64.3666C209.068 64.2976 209.018 64.2373 208.957 64.1902C209.125 60.3472 211.582 57.2882 214.592 57.2882C217.602 57.2882 220.059 60.3472 220.192 64.1902C220.133 64.2389 220.084 64.2997 220.051 64.3686C220.017 64.4374 219.998 64.5126 219.996 64.5892C219.996 64.7303 220.052 64.8656 220.152 64.9654C220.251 65.0652 220.387 65.1212 220.528 65.1212C220.669 65.1212 220.804 65.0652 220.904 64.9654C221.004 64.8656 221.06 64.7303 221.06 64.5892C221.061 64.5082 221.043 64.428 221.008 64.3551C220.973 64.2821 220.921 64.2185 220.857 64.1692Z" fill="white"/>
<path d="M233.709 75.1104C233.709 76.2485 233.372 77.361 232.739 78.3072C232.107 79.2534 231.209 79.9909 230.157 80.4264C229.106 80.862 227.949 80.9759 226.833 80.7539C225.716 80.5319 224.691 79.9838 223.886 79.1791C223.082 78.3744 222.534 77.3492 222.312 76.233C222.09 75.1168 222.204 73.9599 222.639 72.9085C223.075 71.8571 223.812 70.9584 224.758 70.3262C225.705 69.6939 226.817 69.3564 227.955 69.3564C229.481 69.3564 230.945 69.9627 232.024 71.0417C233.103 72.1208 233.709 73.5844 233.709 75.1104Z" fill="#263238"/>
<path d="M227.346 77.3851C227.251 77.3848 227.161 77.3471 227.094 77.2801L224.434 74.6201C224.37 74.5546 224.334 74.4667 224.334 74.3751C224.334 74.2834 224.37 74.1955 224.434 74.1301C224.467 74.0973 224.505 74.0712 224.548 74.0534C224.591 74.0357 224.636 74.0265 224.683 74.0265C224.729 74.0265 224.774 74.0357 224.817 74.0534C224.86 74.0712 224.898 74.0973 224.931 74.1301L227.346 76.5381L230.979 72.9331C231.044 72.8689 231.132 72.833 231.224 72.833C231.316 72.833 231.404 72.8689 231.469 72.9331C231.502 72.9656 231.528 73.0043 231.546 73.047C231.563 73.0896 231.573 73.1354 231.573 73.1816C231.573 73.2278 231.563 73.2735 231.546 73.3162C231.528 73.3588 231.502 73.3975 231.469 73.4301L227.591 77.2801C227.526 77.346 227.438 77.3837 227.346 77.3851Z" fill="white"/>
<path d="M198.225 122.654L195.334 133.791L200.507 134.407L201.746 124.243L198.225 122.654Z" fill="#E4897B"/>
<path d="M158.557 284.536L159.383 285.236L160.482 284.417L162.162 287.973L169.092 293.86C169.092 293.86 171.136 293.692 168.588 290.003C168.462 289.824 168.356 289.631 168.273 289.429C167.216 287.105 167.076 282.191 167.076 282.191L163.275 278.957C163.009 279.035 162.75 279.131 162.498 279.244C161.371 279.727 159.159 280.875 158.557 284.536Z" fill="#F83758"/>
<path opacity="0.2" d="M158.557 284.536L159.383 285.236L160.482 284.417L162.162 287.973L169.092 293.86C169.092 293.86 171.136 293.692 168.588 290.003C168.462 289.824 168.356 289.631 168.273 289.429C167.216 287.105 167.076 282.191 167.076 282.191L163.275 278.957C163.009 279.035 162.75 279.131 162.498 279.244C161.371 279.727 159.159 280.875 158.557 284.536Z" fill="black"/>
<path d="M162.496 279.244C163.476 279.111 163.672 283.514 164.638 285.775C165.499 287.784 166.899 289.541 168.285 289.422C167.228 287.098 167.522 281.141 167.522 281.141L164.463 278.544C164.463 278.544 162.979 279.034 162.496 279.244Z" fill="#E4897B"/>
<path opacity="0.2" d="M162.496 279.244C163.476 279.111 163.672 283.514 164.638 285.775C165.499 287.784 166.899 289.541 168.285 289.422C167.228 287.098 167.522 281.141 167.522 281.141L164.463 278.544C164.463 278.544 162.979 279.034 162.496 279.244Z" fill="black"/>
<path d="M158.353 295.197H159.438L159.739 293.86L163.33 295.477H172.43C172.43 295.477 173.872 294.021 169.546 292.866C169.333 292.81 169.126 292.73 168.93 292.628C166.62 291.55 163.33 287.889 163.33 287.889H158.339C158.188 288.114 158.05 288.348 157.926 288.589C157.38 289.709 156.442 292.012 158.353 295.197Z" fill="#F83758"/>
<path d="M157.926 288.61C158.584 287.875 161.587 291.102 163.778 292.201C165.745 293.181 167.943 293.601 168.923 292.614C166.613 291.536 162.98 286.804 162.98 286.804H158.969C158.969 286.804 158.199 288.141 157.926 288.61Z" fill="#E4897B"/>
<path d="M200.64 125.3L208.193 123.536L204.441 118.461C204.441 118.461 197.511 119.924 198.225 122.661L200.64 125.3Z" fill="#E4897B"/>
<path d="M202.125 125.741C202.125 125.741 201.838 151.263 196.168 151.263C193.025 151.263 189.462 149.219 186.431 146.902C183.887 144.924 181.526 142.722 179.375 140.322V140.238L177.422 128.387C183.022 128.247 192.738 141.029 192.738 141.029L197.4 124.838L202.125 125.741Z" fill="#F83758"/>
<path opacity="0.2" d="M186.431 146.902C183.887 144.924 181.526 142.722 179.375 140.322V140.238L181.195 136.171C184.237 138.956 186.108 142.791 186.431 146.902Z" fill="black"/>
<path d="M154.503 100.1C154.503 100.1 156.274 97.0342 161.349 96.5162C166.424 95.9982 173.151 98.7002 174.18 106.449C175.209 114.198 177.407 118.447 177.407 118.447C177.407 118.447 161.062 122.717 156.47 121.177C151.878 119.637 144.773 102.305 154.503 100.1Z" fill="#263238"/>
<path d="M188.398 235.823C186.109 240.387 183.806 245.301 181.594 250.208C178.689 256.69 175.959 263.179 173.635 268.989C171.976 273.133 169.813 278.362 168.679 281.526C166.223 281.332 163.896 280.35 162.043 278.726C162.897 273.035 165.172 258.251 169.47 245.245C171.724 238.399 174.545 231.644 178.017 226.149C161.784 184.296 164.927 168.315 164.927 168.315L182.147 166.992C182.147 166.992 185.248 182.7 187.852 198.8C189.21 207.242 190.428 215.796 190.988 222.271V222.334C191.386 226.983 190.489 231.652 188.398 235.823Z" fill="#263238"/>
<path opacity="0.2" d="M173.466 213.675C171.058 206.549 169.266 200.375 168.006 195.062C168.972 190.862 170.428 187.222 172.486 185.003C172.486 185.003 175.916 196.546 173.466 213.675Z" fill="black"/>
<path opacity="0.2" d="M173.635 268.989C171.976 273.133 169.813 278.362 168.679 281.526C166.223 281.332 163.896 280.35 162.043 278.726C162.897 273.035 165.172 258.251 169.47 245.245C170.947 252.196 172.641 261.009 173.635 268.989Z" fill="black"/>
<path d="M175.203 165.298C175.203 165.298 170.184 204.155 167.307 222.852C164.283 242.487 163.898 274.001 164.654 286.839C163.555 287.476 159.544 288.239 157.381 287.574C157.381 287.574 147.14 247.856 153.937 224.791C147.749 179.354 156.737 168.224 156.737 168.224L175.203 165.298Z" fill="#263238"/>
<path opacity="0.7" d="M173.529 140.833C168.482 136.283 162.885 132.381 156.869 129.22C157.415 129.157 157.982 129.101 158.542 129.052C162.362 128.648 166.205 128.519 170.043 128.667C170.995 128.723 171.975 128.8 172.934 128.877C175.314 134.337 173.529 140.833 173.529 140.833Z" fill="white"/>
<path d="M156.868 165.298L181.998 163.604C181.998 163.604 182.747 171.143 182.572 171.038C182.397 170.933 155.699 171.976 155.699 171.976L156.868 165.298Z" fill="#263238"/>
<path d="M157.1 165.711L181.943 164.339V166.698L156.869 168.028L157.1 165.711Z" fill="black"/>
<path d="M171.079 167.692C170.9 167.693 170.728 167.625 170.598 167.502C170.468 167.38 170.389 167.213 170.379 167.034L170.267 165.634C170.258 165.541 170.268 165.446 170.297 165.357C170.326 165.267 170.372 165.184 170.434 165.113C170.495 165.042 170.57 164.984 170.654 164.942C170.739 164.901 170.831 164.877 170.925 164.871L173.648 164.654C173.746 164.646 173.844 164.659 173.937 164.691C174.03 164.724 174.115 164.776 174.187 164.843C174.26 164.91 174.319 164.991 174.358 165.081C174.398 165.172 174.418 165.269 174.418 165.368V166.824C174.418 167.01 174.344 167.188 174.213 167.319C174.081 167.451 173.903 167.524 173.718 167.524L171.107 167.664L171.079 167.692ZM173.697 165.151L170.974 165.361C170.942 165.364 170.912 165.373 170.884 165.387C170.856 165.402 170.831 165.422 170.811 165.446C170.791 165.47 170.776 165.497 170.766 165.527C170.757 165.557 170.754 165.589 170.757 165.62L170.862 167.02C170.869 167.082 170.898 167.139 170.945 167.181C170.991 167.222 171.051 167.245 171.114 167.244L173.725 167.104C173.787 167.102 173.845 167.077 173.888 167.032C173.932 166.988 173.956 166.928 173.956 166.866V165.41C173.956 165.377 173.949 165.345 173.936 165.314C173.923 165.284 173.903 165.257 173.879 165.235C173.857 165.208 173.829 165.187 173.797 165.172C173.766 165.158 173.731 165.151 173.697 165.151Z" fill="white"/>
<path d="M156.869 165.298C156.344 159.404 154.237 148.603 150.604 137.256C149.421 133.567 151.423 129.402 151.423 129.402C151.423 129.402 156.372 129.276 156.869 129.22C157.366 129.164 157.982 129.101 158.542 129.052C162.362 128.648 166.205 128.519 170.043 128.667C170.995 128.723 171.975 128.8 172.934 128.877C173.242 128.877 176.721 128.94 177.022 128.975C177.022 128.975 181.838 134.477 182.132 138.936C182.486 142.368 182.617 145.819 182.524 149.268C182.524 153.314 181.936 164.339 181.936 164.339C181.166 168.602 172.479 164.703 172.479 164.703C159.942 170.912 156.869 165.298 156.869 165.298Z" fill="#F83758"/>
<path opacity="0.8" d="M156.869 165.298C156.344 159.404 154.237 148.603 150.604 137.256C149.421 133.567 151.423 129.402 151.423 129.402C151.423 129.402 156.372 129.276 156.869 129.22C157.366 129.164 157.982 129.101 158.542 129.052C162.362 128.648 166.205 128.519 170.043 128.667C170.995 128.723 171.975 128.8 172.934 128.877C173.242 128.877 176.721 128.94 177.022 128.975C177.022 128.975 181.838 134.477 182.132 138.936C182.486 142.368 182.617 145.819 182.524 149.268C182.524 153.314 181.936 164.339 181.936 164.339C181.166 168.602 172.479 164.703 172.479 164.703C159.942 170.912 156.869 165.298 156.869 165.298Z" fill="white"/>
<path opacity="0.2" d="M170.925 139.825C170.925 139.903 170.902 139.978 170.859 140.043C170.815 140.107 170.754 140.158 170.683 140.187C170.611 140.217 170.532 140.225 170.456 140.21C170.38 140.194 170.31 140.157 170.255 140.102C170.201 140.047 170.163 139.978 170.148 139.902C170.133 139.826 170.141 139.747 170.17 139.675C170.2 139.603 170.25 139.542 170.315 139.499C170.379 139.456 170.455 139.433 170.533 139.433C170.637 139.433 170.736 139.474 170.81 139.548C170.883 139.621 170.925 139.721 170.925 139.825Z" fill="black"/>
<path opacity="0.2" d="M172.352 148.106C172.352 148.184 172.329 148.26 172.286 148.324C172.243 148.389 172.182 148.439 172.11 148.469C172.039 148.498 171.96 148.506 171.884 148.491C171.808 148.476 171.738 148.438 171.683 148.384C171.628 148.329 171.591 148.259 171.576 148.183C171.561 148.107 171.569 148.028 171.598 147.956C171.628 147.885 171.678 147.823 171.743 147.78C171.807 147.737 171.883 147.714 171.96 147.714C172.064 147.714 172.164 147.756 172.238 147.829C172.311 147.903 172.352 148.002 172.352 148.106Z" fill="black"/>
<path opacity="0.2" d="M172.353 156.394C172.569 156.394 172.745 156.219 172.745 156.002C172.745 155.786 172.569 155.61 172.353 155.61C172.136 155.61 171.961 155.786 171.961 156.002C171.961 156.219 172.136 156.394 172.353 156.394Z" fill="black"/>
<path opacity="0.2" d="M172.746 163.996C172.962 163.996 173.138 163.821 173.138 163.604C173.138 163.388 172.962 163.212 172.746 163.212C172.529 163.212 172.354 163.388 172.354 163.604C172.354 163.821 172.529 163.996 172.746 163.996Z" fill="black"/>
<path d="M158.9 182.546L150.22 180.978L155.274 162.309C155.274 162.309 154 157.675 152.6 152.362C151.9 149.772 151.2 147.028 150.577 144.585C149.886 142.158 149.339 139.692 148.939 137.2C148.778 134.225 151.431 129.409 151.431 129.409L155.288 128.779C155.288 128.779 163.408 134.701 163.779 146.783C164.15 158.865 158.9 182.546 158.9 182.546Z" fill="#F83758"/>
<path d="M174.887 128.387C174.887 128.387 177.442 137.9 178.695 144.9C179.948 151.9 183.399 181.706 183.399 181.706L185.282 180.768L182.699 162.981C182.699 162.981 183.644 142.366 182.909 138.131C182.174 133.896 177.435 128.387 177.435 128.387H174.887Z" fill="#F83758"/>
<path d="M171.534 130.291C172.745 134.708 170.134 138.621 170.134 138.621C162.385 136.171 159.179 129.031 159.179 129.031C161.496 126.483 160.033 119.742 158.906 116.074L162.007 118.398L166.627 121.849C166.54 122.8 166.616 123.759 166.851 124.684C167.201 126.154 167.824 127.533 168.517 127.827L171.534 130.291Z" fill="#E4897B"/>
<path opacity="0.2" d="M166.852 124.684C165.011 124.271 162.596 122.367 162.211 120.484C162.062 119.795 161.994 119.09 162.008 118.384L166.628 121.835C166.539 122.791 166.615 123.754 166.852 124.684Z" fill="black"/>
<path d="M155.496 108.752C156.819 114.688 157.253 117.229 160.767 119.952C166.045 124.089 173.01 121.569 173.479 115.451C173.899 109.949 171.659 101.164 165.429 99.4003C164.103 98.9736 162.687 98.9103 161.328 99.2171C159.969 99.5238 158.717 100.189 157.702 101.144C156.688 102.099 155.948 103.309 155.56 104.647C155.172 105.985 155.15 107.403 155.496 108.752Z" fill="#E4897B"/>
<path d="M163.162 109.487C163.253 109.991 163.589 110.369 163.911 110.334C164.233 110.299 164.422 109.865 164.331 109.361C164.24 108.857 163.904 108.479 163.582 108.514C163.26 108.549 163.099 108.983 163.162 109.487Z" fill="#263238"/>
<path d="M169.4 108.612C169.491 109.116 169.827 109.494 170.149 109.466C170.471 109.438 170.66 108.99 170.576 108.486C170.492 107.982 170.149 107.604 169.827 107.639C169.505 107.674 169.344 108.108 169.4 108.612Z" fill="#263238"/>
<path d="M169.715 107.681L170.842 107.205C170.842 107.205 170.401 108.22 169.715 107.681Z" fill="#263238"/>
<path d="M167.705 109.9C168.351 111.005 169.137 112.021 170.043 112.924C169.817 113.135 169.547 113.291 169.253 113.382C168.958 113.473 168.647 113.496 168.342 113.449L167.705 109.9Z" fill="#DE5753"/>
<path d="M161.699 106.435C161.738 106.435 161.777 106.426 161.812 106.409C161.847 106.392 161.878 106.368 161.902 106.337C162.128 106.055 162.422 105.833 162.755 105.692C163.089 105.552 163.453 105.497 163.813 105.532C163.85 105.538 163.888 105.536 163.925 105.527C163.962 105.518 163.996 105.501 164.026 105.478C164.056 105.455 164.082 105.427 164.1 105.394C164.119 105.361 164.131 105.325 164.135 105.287C164.14 105.206 164.114 105.127 164.064 105.063C164.014 105 163.942 104.958 163.862 104.944C163.407 104.894 162.947 104.959 162.524 105.133C162.101 105.306 161.728 105.583 161.44 105.938C161.393 106.001 161.372 106.08 161.381 106.158C161.39 106.236 161.429 106.308 161.489 106.358C161.549 106.406 161.622 106.433 161.699 106.435Z" fill="#263238"/>
<path d="M171.415 105C171.49 105.01 171.565 104.99 171.625 104.944C171.653 104.917 171.675 104.884 171.69 104.848C171.706 104.812 171.713 104.773 171.713 104.734C171.713 104.695 171.706 104.656 171.69 104.62C171.675 104.584 171.653 104.551 171.625 104.524C171.332 104.144 170.956 103.837 170.525 103.627C170.094 103.417 169.62 103.31 169.14 103.313C169.102 103.316 169.065 103.326 169.032 103.343C168.998 103.361 168.968 103.385 168.945 103.415C168.921 103.445 168.904 103.479 168.894 103.516C168.884 103.552 168.882 103.591 168.888 103.628C168.9 103.707 168.941 103.779 169.003 103.829C169.065 103.88 169.144 103.905 169.224 103.901C169.604 103.908 169.977 104 170.317 104.171C170.656 104.342 170.953 104.587 171.184 104.888C171.212 104.923 171.247 104.951 171.287 104.97C171.327 104.989 171.371 105 171.415 105Z" fill="#263238"/>
<path d="M163.449 108.556L164.569 108.08C164.569 108.08 164.128 109.088 163.449 108.556Z" fill="#263238"/>
<path d="M158.542 112.189C158.542 112.189 161.461 107.94 159.242 101.647C159.242 101.647 165.843 98.4412 170.848 103.327C170.848 103.327 166.193 95.1722 156.477 99.0782C146.761 102.984 154.09 112.315 155.294 113.078C156.498 113.841 158.542 112.189 158.542 112.189Z" fill="#263238"/>
<path d="M154.307 113.883C155.087 114.916 156.245 115.598 157.527 115.78C159.165 115.976 159.627 114.317 158.927 112.791C158.227 111.391 156.582 109.669 155.077 110.18C153.572 110.691 153.299 112.581 154.307 113.883Z" fill="#E4897B"/>
<path d="M168.699 114.856C168.379 115.62 168.115 116.406 167.908 117.208C167.761 117.208 167.614 117.208 167.474 117.166C165.5 116.97 164.674 116.221 164.31 115.458C164.152 115.082 164.085 114.675 164.114 114.268C164.122 114.03 164.165 113.795 164.24 113.568C165.227 114.303 167.04 114.632 168.027 114.765C168.426 114.842 168.699 114.856 168.699 114.856Z" fill="#263238"/>
<path d="M167.999 114.8L167.747 115.5C165.892 115.304 164.611 114.919 164.086 114.303C164.095 114.065 164.137 113.829 164.212 113.603C165.199 114.317 167.033 114.646 167.999 114.8Z" fill="white"/>
<path d="M167.461 117.166C165.487 116.97 164.661 116.221 164.297 115.458C165.044 115.549 165.77 115.771 166.439 116.116C166.881 116.351 167.238 116.718 167.461 117.166Z" fill="#DE5753"/>
<path opacity="0.2" d="M153.712 150.92C153.496 151.513 153.093 152.019 152.564 152.362C151.864 149.772 151.164 147.028 150.541 144.585C152.144 142.646 153.495 141.029 153.495 141.029C153.495 141.029 155.343 146.769 153.712 150.92Z" fill="black"/>
<path d="M151.424 129.402C147.994 129.815 137.48 155.932 138.124 160.055C138.768 164.178 161.371 162.309 161.371 162.309V156.009L148.169 153.349L152.74 144.389C153.549 141.787 153.886 139.06 153.734 136.339C153.443 133.894 152.657 131.534 151.424 129.402Z" fill="#F83758"/>
<path d="M148.07 171.969C148.033 171.978 147.994 171.978 147.958 171.969C147.901 171.938 147.86 171.886 147.841 171.824C147.823 171.763 147.83 171.697 147.86 171.64C147.923 171.514 154.461 158.97 151.983 155.022C151.698 154.607 151.302 154.28 150.84 154.078C150.379 153.876 149.87 153.808 149.372 153.881C140.349 154.196 136.072 167.279 136.03 167.412C136.004 167.465 135.96 167.507 135.906 167.53C135.852 167.553 135.791 167.556 135.735 167.538C135.679 167.52 135.631 167.483 135.601 167.433C135.57 167.383 135.558 167.323 135.568 167.265C135.61 167.125 139.985 153.72 149.351 153.391C149.937 153.318 150.532 153.41 151.069 153.658C151.606 153.905 152.063 154.298 152.389 154.791C155.021 158.991 148.567 171.367 148.287 171.892C148.26 171.922 148.226 171.945 148.188 171.958C148.15 171.972 148.109 171.976 148.07 171.969Z" fill="#F83758"/>
<g opacity="0.6">
<path d="M148.07 171.969C148.033 171.978 147.994 171.978 147.958 171.969C147.901 171.938 147.86 171.886 147.841 171.824C147.823 171.763 147.83 171.697 147.86 171.64C147.923 171.514 154.461 158.97 151.983 155.022C151.698 154.607 151.302 154.28 150.84 154.078C150.379 153.876 149.87 153.808 149.372 153.881C140.349 154.196 136.072 167.279 136.03 167.412C136.004 167.465 135.96 167.507 135.906 167.53C135.852 167.553 135.791 167.556 135.735 167.538C135.679 167.52 135.631 167.483 135.601 167.433C135.57 167.383 135.558 167.323 135.568 167.265C135.61 167.125 139.985 153.72 149.351 153.391C149.937 153.318 150.532 153.41 151.069 153.658C151.606 153.905 152.063 154.298 152.389 154.791C155.021 158.991 148.567 171.367 148.287 171.892C148.26 171.922 148.226 171.945 148.188 171.958C148.15 171.972 148.109 171.976 148.07 171.969Z" fill="white"/>
</g>
<path d="M132.082 164.465L117.914 194.075L120.098 202.979L144.948 211.47L156.729 175.889L153.474 172.578L153.166 170.639L132.082 164.465Z" fill="#263238"/>
<path opacity="0.2" d="M132.082 164.465L117.914 194.075L120.098 202.979L144.948 211.47L156.729 175.889L135.575 170.835L135.778 168.287L132.082 164.465Z" fill="white"/>
<path opacity="0.1" d="M135.576 170.828L135.779 168.287L132.09 164.465L153.16 170.639L153.475 172.578L156.73 175.889L135.576 170.828Z" fill="white"/>
<path opacity="0.2" d="M135.575 170.835L120.098 202.979L144.948 211.47L156.729 175.889L135.575 170.835Z" fill="white"/>
<path opacity="0.1" d="M135.778 168.287L121.561 194.6L117.914 194.075L120.098 202.979L121.96 195.111L135.778 168.287Z" fill="white"/>
<path d="M149.799 153.258C149.202 152.947 148.537 152.791 147.864 152.805C147.191 152.818 146.533 153 145.949 153.335C140.699 156.317 138.907 170.933 138.697 172.809C138.588 172.852 138.498 172.932 138.443 173.035C138.387 173.137 138.369 173.257 138.393 173.371C138.416 173.485 138.479 173.588 138.571 173.661C138.662 173.733 138.776 173.771 138.893 173.768C139.025 173.768 139.151 173.716 139.244 173.623C139.338 173.529 139.39 173.403 139.39 173.271C139.388 173.193 139.369 173.116 139.332 173.047C139.296 172.978 139.244 172.918 139.18 172.872C139.376 171.15 141.203 156.59 146.18 153.762C146.696 153.462 147.28 153.299 147.876 153.288C148.473 153.277 149.063 153.418 149.589 153.699C156.981 157.129 151.766 173.355 150.821 176.099C150.724 176.106 150.632 176.141 150.554 176.2C150.477 176.259 150.419 176.339 150.387 176.431C150.355 176.522 150.35 176.621 150.374 176.715C150.397 176.81 150.448 176.895 150.519 176.961C150.591 177.026 150.68 177.07 150.776 177.085C150.871 177.101 150.97 177.088 151.058 177.049C151.147 177.01 151.222 176.945 151.274 176.863C151.327 176.782 151.354 176.686 151.353 176.589C151.352 176.493 151.32 176.4 151.262 176.323C152.249 173.6 157.73 156.933 149.799 153.258Z" fill="#F83758"/>
<path opacity="0.7" d="M149.799 153.258C149.202 152.947 148.537 152.791 147.864 152.805C147.191 152.818 146.533 153 145.949 153.335C140.699 156.317 138.907 170.933 138.697 172.809C138.588 172.852 138.498 172.932 138.443 173.035C138.387 173.137 138.369 173.257 138.393 173.371C138.416 173.485 138.479 173.588 138.571 173.661C138.662 173.733 138.776 173.771 138.893 173.768C139.025 173.768 139.151 173.716 139.244 173.623C139.338 173.529 139.39 173.403 139.39 173.271C139.388 173.193 139.369 173.116 139.332 173.047C139.296 172.978 139.244 172.918 139.18 172.872C139.376 171.15 141.203 156.59 146.18 153.762C146.696 153.462 147.28 153.299 147.876 153.288C148.473 153.277 149.063 153.418 149.589 153.699C156.981 157.129 151.766 173.355 150.821 176.099C150.724 176.106 150.632 176.141 150.554 176.2C150.477 176.259 150.419 176.339 150.387 176.431C150.355 176.522 150.35 176.621 150.374 176.715C150.397 176.81 150.448 176.895 150.519 176.961C150.591 177.026 150.68 177.07 150.776 177.085C150.871 177.101 150.97 177.088 151.058 177.049C151.147 177.01 151.222 176.945 151.274 176.863C151.327 176.782 151.354 176.686 151.353 176.589C151.352 176.493 151.32 176.4 151.262 176.323C152.249 173.6 157.73 156.933 149.799 153.258Z" fill="white"/>
<path d="M154.979 171.073H154.944C154.882 171.064 154.826 171.031 154.788 170.982C154.75 170.932 154.733 170.869 154.741 170.807C154.741 170.674 156.512 157.136 152.781 154.063C152.361 153.739 151.862 153.535 151.336 153.472C150.809 153.409 150.276 153.49 149.792 153.706C141.259 156.611 142.176 170.009 142.183 170.142C142.187 170.173 142.184 170.205 142.175 170.235C142.166 170.265 142.151 170.292 142.13 170.316C142.11 170.34 142.085 170.359 142.056 170.372C142.028 170.386 141.997 170.393 141.966 170.394C141.904 170.398 141.843 170.377 141.796 170.337C141.749 170.296 141.719 170.239 141.714 170.177C141.714 170.037 140.755 156.282 149.638 153.258C150.199 153.016 150.814 152.93 151.42 153.007C152.026 153.085 152.6 153.324 153.082 153.699C157.016 156.933 155.287 170.303 155.182 170.87C155.176 170.922 155.153 170.97 155.116 171.007C155.079 171.044 155.031 171.067 154.979 171.073Z" fill="#263238"/>
<path d="M137.569 168.511L128.287 205.303L132.956 213.192L159.199 214.13L164.463 172.326L160.389 170.093L159.535 168.329L137.569 168.511Z" fill="#F83758"/>
<path opacity="0.5" d="M137.569 168.511L128.287 205.303L132.956 213.192L159.199 214.13L164.463 172.326L142.756 173.6L142.21 171.101L137.569 168.511Z" fill="white"/>
<path opacity="0.3" d="M142.75 173.6L142.211 171.101L137.57 168.511L159.529 168.322L160.39 170.093L164.464 172.326L142.75 173.6Z" fill="white"/>
<path opacity="0.2" d="M142.757 173.6L132.957 213.192L159.2 214.13L164.464 172.326L142.757 173.6Z" fill="white"/>
<path d="M146.6 174.958C146.545 174.959 146.492 174.94 146.45 174.906C146.407 174.871 146.379 174.823 146.369 174.769C146.243 174.125 143.394 159.005 147.678 154.504C148.149 154.007 148.738 153.636 149.389 153.426C150.041 153.215 150.736 153.172 151.409 153.3C160.621 154.609 159.41 173.873 159.354 174.692C159.352 174.723 159.344 174.753 159.33 174.781C159.317 174.809 159.297 174.834 159.274 174.854C159.25 174.874 159.223 174.89 159.193 174.899C159.164 174.909 159.133 174.912 159.102 174.909C159.07 174.908 159.04 174.901 159.011 174.888C158.983 174.874 158.958 174.855 158.937 174.831C158.917 174.807 158.902 174.78 158.892 174.75C158.883 174.72 158.881 174.688 158.885 174.657C158.885 174.461 160.124 155.015 151.339 153.769C150.741 153.65 150.124 153.684 149.543 153.869C148.963 154.054 148.439 154.383 148.021 154.826C143.898 159.159 146.803 174.524 146.831 174.678C146.841 174.74 146.827 174.804 146.792 174.856C146.757 174.908 146.703 174.945 146.642 174.958H146.6Z" fill="#263238"/>
<path opacity="0.1" d="M142.21 171.101L131.934 204.743L128.287 205.303L132.956 213.192L132.466 205.121L142.21 171.101Z" fill="white"/>
<path d="M147.118 174.825C147.137 174.887 147.144 174.953 147.138 175.017C147.132 175.082 147.113 175.145 147.082 175.202C147.052 175.26 147.01 175.31 146.96 175.351C146.909 175.392 146.851 175.423 146.789 175.441C146.695 175.471 146.594 175.471 146.5 175.443C146.405 175.415 146.321 175.359 146.258 175.283C146.196 175.207 146.157 175.114 146.147 175.016C146.137 174.918 146.157 174.82 146.203 174.733C146.25 174.646 146.321 174.574 146.408 174.528C146.495 174.482 146.594 174.462 146.692 174.472C146.79 174.482 146.883 174.521 146.959 174.584C147.034 174.647 147.09 174.731 147.118 174.825Z" fill="#263238"/>
<path d="M159.544 174.545C159.573 174.639 159.574 174.74 159.546 174.834C159.517 174.929 159.462 175.013 159.386 175.076C159.31 175.138 159.217 175.177 159.119 175.187C159.021 175.197 158.922 175.177 158.835 175.131C158.748 175.085 158.677 175.013 158.631 174.926C158.584 174.839 158.565 174.741 158.575 174.642C158.585 174.544 158.624 174.451 158.686 174.376C158.749 174.3 158.833 174.244 158.928 174.216C158.99 174.197 159.055 174.19 159.12 174.196C159.185 174.202 159.247 174.221 159.305 174.252C159.362 174.282 159.413 174.324 159.454 174.374C159.495 174.425 159.525 174.483 159.544 174.545Z" fill="#263238"/>
<path d="M196.335 137.417C196.278 137.418 196.223 137.397 196.181 137.36C196.138 137.322 196.111 137.27 196.104 137.214C196.104 137.074 194.067 122.899 202.355 118.538C202.847 118.221 203.417 118.045 204.002 118.03C204.588 118.015 205.166 118.162 205.673 118.454C209.873 121.093 209.565 135.254 209.544 135.835C209.542 135.897 209.516 135.956 209.472 135.999C209.427 136.042 209.368 136.066 209.306 136.066C209.275 136.066 209.243 136.06 209.214 136.047C209.185 136.035 209.159 136.017 209.138 135.994C209.116 135.971 209.099 135.944 209.088 135.914C209.078 135.884 209.073 135.853 209.075 135.821C209.075 135.681 209.425 121.352 205.421 118.86C204.985 118.61 204.488 118.487 203.986 118.504C203.484 118.521 202.997 118.679 202.579 118.958C194.585 123.158 196.552 137.004 196.573 137.158C196.578 137.189 196.577 137.221 196.569 137.251C196.561 137.281 196.548 137.31 196.529 137.335C196.51 137.36 196.486 137.38 196.458 137.396C196.431 137.411 196.401 137.421 196.37 137.424L196.335 137.417Z" fill="#263238"/>
<path d="M191.758 136.227L188.293 174.013L194.124 181.083L220.199 177.947L218.918 135.828L214.55 134.253L213.423 132.643L191.758 136.227Z" fill="#263238"/>
<path opacity="0.5" d="M191.758 136.227L188.293 174.013L194.124 181.083L220.199 177.947L218.918 135.828L197.666 140.455L196.742 138.068L191.758 136.227Z" fill="white"/>
<path opacity="0.3" d="M197.666 140.455L196.742 138.068L191.758 136.227L213.423 132.643L214.55 134.253L218.918 135.828L197.666 140.455Z" fill="white"/>
<path opacity="0.2" d="M197.665 140.455L194.123 181.083L220.198 177.947L218.917 135.828L197.665 140.455Z" fill="white"/>
<path d="M201.64 141.204C201.592 141.206 201.544 141.191 201.503 141.164C201.463 141.136 201.433 141.096 201.416 141.05C201.206 140.483 196.404 127.05 199.806 121.107C200.187 120.415 200.719 119.817 201.365 119.361C202.01 118.905 202.751 118.602 203.53 118.475C204.265 118.332 205.023 118.352 205.749 118.535C206.475 118.717 207.151 119.058 207.73 119.532C213.197 123.795 214.177 138.348 214.212 138.964C214.215 139.026 214.194 139.086 214.153 139.133C214.113 139.18 214.057 139.209 213.995 139.216C213.964 139.218 213.933 139.214 213.903 139.204C213.874 139.193 213.846 139.177 213.823 139.157C213.8 139.136 213.781 139.111 213.767 139.082C213.753 139.054 213.745 139.024 213.743 138.992C213.743 138.845 212.742 124.033 207.443 119.903C206.912 119.469 206.292 119.158 205.626 118.991C204.961 118.824 204.267 118.806 203.593 118.937C202.882 119.054 202.207 119.33 201.619 119.746C201.031 120.162 200.545 120.707 200.198 121.338C196.901 127.092 201.787 140.749 201.836 140.889C201.848 140.918 201.853 140.949 201.852 140.98C201.851 141.011 201.843 141.041 201.83 141.069C201.817 141.098 201.799 141.123 201.776 141.144C201.753 141.164 201.726 141.18 201.696 141.19L201.64 141.204Z" fill="#263238"/>
<path opacity="0.1" d="M196.742 138.068L191.807 172.9L188.293 174.013L194.124 181.083L192.388 173.187L196.742 138.068Z" fill="white"/>
<path d="M202.165 140.987C202.207 141.075 202.221 141.172 202.207 141.268C202.193 141.363 202.151 141.453 202.086 141.525C202.022 141.596 201.937 141.647 201.844 141.671C201.75 141.695 201.651 141.691 201.56 141.659C201.469 141.627 201.389 141.569 201.331 141.491C201.273 141.414 201.239 141.322 201.233 141.225C201.228 141.129 201.251 141.033 201.299 140.949C201.348 140.866 201.421 140.799 201.507 140.756C201.566 140.728 201.629 140.711 201.694 140.707C201.759 140.704 201.824 140.713 201.885 140.734C201.946 140.756 202.002 140.789 202.05 140.833C202.099 140.876 202.138 140.929 202.165 140.987Z" fill="#263238"/>
<path d="M214.403 138.782C214.442 138.87 214.454 138.968 214.439 139.062C214.424 139.157 214.381 139.246 214.316 139.317C214.252 139.388 214.168 139.439 214.075 139.464C213.982 139.488 213.884 139.485 213.792 139.455C213.701 139.425 213.62 139.369 213.56 139.294C213.5 139.219 213.463 139.128 213.454 139.032C213.444 138.937 213.463 138.84 213.507 138.755C213.551 138.669 213.619 138.599 213.703 138.551C213.763 138.517 213.83 138.496 213.899 138.489C213.968 138.482 214.038 138.49 214.104 138.511C214.17 138.533 214.231 138.568 214.282 138.615C214.333 138.662 214.375 138.719 214.403 138.782Z" fill="#263238"/>
<path d="M172.899 151.9L173.046 150.689L173.151 150.577C173.697 149.877 173.592 148.666 173.445 147.721C173.298 146.776 172.801 145.502 171.905 145.159C172.036 144.904 172.068 144.61 171.996 144.333C171.941 144.149 171.84 143.983 171.702 143.85C172.353 143.15 172.325 141.862 172.101 140.931C171.877 140 171.499 138.831 170.701 138.404C170.653 138.38 170.604 138.359 170.554 138.341L169.959 137.291L169.203 137.445L169.147 138.32C167.817 138.733 166.473 139.783 166.816 141.477C166.813 141.5 166.813 141.524 166.816 141.547C167.187 143.192 169.014 144.074 170.68 144.214C170.884 144.26 171.097 144.24 171.289 144.158C171.388 144.239 171.459 144.349 171.492 144.473C171.532 144.668 171.495 144.872 171.387 145.04C171.203 145.069 171.026 145.135 170.869 145.236C169.399 146.006 168.069 147.518 168.349 149.184C168.349 149.184 168.349 149.233 168.349 149.254C168.692 150.948 170.274 151.403 171.716 151.263L172.115 152.061L172.899 151.9ZM170.715 143.724C169.315 143.598 167.614 142.835 167.299 141.428C166.984 140.021 168.181 139.083 169.399 138.733C169.568 138.675 169.747 138.652 169.926 138.667C170.104 138.681 170.277 138.732 170.435 138.817C171.058 139.181 171.38 140.217 171.583 141.036L171.625 141.211C171.758 141.911 171.821 143.017 171.289 143.528C171.058 143.752 171.058 143.752 170.694 143.724H170.715ZM171.835 150.759C171.219 150.843 169.154 150.934 168.839 149.093C168.594 147.693 169.84 146.293 171.121 145.649C171.429 145.495 171.429 145.495 171.73 145.649C172.43 145.915 172.794 146.965 172.934 147.658C172.934 147.714 172.934 147.777 172.934 147.826C173.067 148.687 173.172 149.744 172.731 150.325C172.616 150.456 172.475 150.563 172.318 150.637C172.16 150.712 171.988 150.753 171.814 150.759H171.835Z" fill="#263238"/>
<path d="M171.849 151.004C170.449 151.186 168.874 150.773 168.58 149.135C168.286 147.497 169.609 146.16 170.974 145.446C171.373 145.236 171.387 145.222 171.8 145.383C172.64 145.712 173.06 146.979 173.2 147.756C173.417 149.261 173.438 150.801 171.849 151.004Z" fill="#F83758"/>
<path d="M169.335 138.502C167.935 138.887 166.682 139.902 167.046 141.484C167.41 143.066 169.146 143.836 170.672 143.962C171.12 144.004 171.141 144.011 171.456 143.703C172.107 143.073 172.009 141.743 171.82 140.98C171.456 139.496 170.875 138.068 169.335 138.502Z" fill="#F83758"/>
<path d="M172.256 151.319C171.262 147.329 170.023 142.919 169.68 142.541C169.111 142.308 168.52 142.129 167.916 142.009L168.014 141.547C168.675 141.676 169.32 141.876 169.939 142.142C170.464 142.443 171.899 147.952 172.739 151.207L172.256 151.319Z" fill="#263238"/>
<path opacity="0.4" d="M171.849 151.004C170.449 151.186 168.874 150.773 168.58 149.135C168.286 147.497 169.609 146.16 170.974 145.446C171.373 145.236 171.387 145.222 171.8 145.383C172.64 145.712 173.06 146.979 173.2 147.756C173.417 149.261 173.438 150.801 171.849 151.004Z" fill="white"/>
<path opacity="0.4" d="M169.335 138.502C167.935 138.887 166.682 139.902 167.046 141.484C167.41 143.066 169.146 143.836 170.672 143.962C171.12 144.004 171.141 144.011 171.456 143.703C172.107 143.073 172.009 141.743 171.82 140.98C171.456 139.496 170.875 138.068 169.335 138.502Z" fill="white"/>
<path d="M201.598 138.264C201.55 138.264 201.503 138.249 201.463 138.221C201.423 138.194 201.392 138.155 201.374 138.11C201.101 137.466 194.759 122.143 203.362 118.258C203.869 118.016 204.426 117.895 204.987 117.908C205.549 117.92 206.1 118.064 206.596 118.328C211.496 120.806 214.163 133.504 214.296 134.043C214.303 134.074 214.304 134.106 214.299 134.137C214.294 134.168 214.282 134.198 214.265 134.225C214.248 134.252 214.226 134.275 214.2 134.293C214.174 134.311 214.145 134.324 214.114 134.33C214.051 134.345 213.985 134.334 213.93 134.3C213.874 134.266 213.835 134.211 213.82 134.148C213.82 134.015 211.062 121.135 206.393 118.748C205.964 118.518 205.487 118.392 205 118.383C204.513 118.373 204.031 118.479 203.593 118.692C195.424 122.381 201.794 137.753 201.857 137.907C201.871 137.936 201.879 137.968 201.88 138.001C201.881 138.033 201.875 138.065 201.863 138.095C201.852 138.125 201.834 138.153 201.811 138.176C201.788 138.199 201.761 138.217 201.731 138.229C201.691 138.253 201.645 138.265 201.598 138.264Z" fill="#263238"/>
<g opacity="0.7">
<path d="M201.598 138.264C201.55 138.264 201.503 138.249 201.463 138.221C201.423 138.194 201.392 138.155 201.374 138.11C201.101 137.466 194.759 122.143 203.362 118.258C203.869 118.016 204.426 117.895 204.987 117.908C205.549 117.92 206.1 118.064 206.596 118.328C211.496 120.806 214.163 133.504 214.296 134.043C214.303 134.074 214.304 134.106 214.299 134.137C214.294 134.168 214.282 134.198 214.265 134.225C214.248 134.252 214.226 134.275 214.2 134.293C214.174 134.311 214.145 134.324 214.114 134.33C214.051 134.345 213.985 134.334 213.93 134.3C213.874 134.266 213.835 134.211 213.82 134.148C213.82 134.015 211.062 121.135 206.393 118.748C205.964 118.518 205.487 118.392 205 118.383C204.513 118.373 204.031 118.479 203.593 118.692C195.424 122.381 201.794 137.753 201.857 137.907C201.871 137.936 201.879 137.968 201.88 138.001C201.881 138.033 201.875 138.065 201.863 138.095C201.852 138.125 201.834 138.153 201.811 138.176C201.788 138.199 201.761 138.217 201.731 138.229C201.691 138.253 201.645 138.265 201.598 138.264Z" fill="white"/>
</g>
<path d="M196.938 138.005L203.608 170.156L210.742 175.917L235.654 167.608L223.467 132.167L218.869 131.502L217.448 130.144L196.938 138.005Z" fill="#F83758"/>
<path opacity="0.2" d="M196.938 138.005L203.608 170.156L210.742 175.917L235.654 167.608L223.467 132.167L203.574 140.959L202.188 138.81L196.938 138.005Z" fill="white"/>
<path opacity="0.1" d="M203.567 140.959L202.188 138.81L196.938 138.005L217.441 130.144L218.869 131.502L223.461 132.167L203.567 140.959Z" fill="white"/>
<path opacity="0.2" d="M203.572 140.959L210.74 175.917L235.653 167.608L223.466 132.167L203.572 140.959Z" fill="white"/>
<path opacity="0.1" d="M202.188 138.81L206.829 168.357L203.608 170.156L210.742 175.917L207.458 168.525L202.188 138.81Z" fill="white"/>
<path d="M219.631 135.968C219.569 135.896 219.489 135.841 219.4 135.807C218.49 133.007 212.582 116.088 204.056 117.971C203.399 118.084 202.78 118.36 202.258 118.775C201.735 119.189 201.326 119.729 201.067 120.344C198.673 125.944 206.282 138.992 207.262 140.644C207.216 140.729 207.195 140.826 207.202 140.923C207.21 141.02 207.245 141.113 207.304 141.19C207.343 141.243 207.393 141.288 207.45 141.321C207.506 141.354 207.569 141.376 207.635 141.384C207.7 141.393 207.766 141.388 207.83 141.37C207.893 141.353 207.953 141.322 208.004 141.281C208.057 141.242 208.101 141.192 208.135 141.136C208.168 141.079 208.19 141.017 208.199 140.952C208.208 140.886 208.204 140.82 208.188 140.757C208.171 140.693 208.142 140.633 208.102 140.581C208.055 140.519 207.993 140.47 207.922 140.437C207.852 140.404 207.774 140.388 207.696 140.392C206.8 138.88 199.247 125.86 201.522 120.533C201.75 119.988 202.112 119.51 202.575 119.143C203.038 118.776 203.586 118.531 204.168 118.433C212.127 116.683 217.979 133.077 218.924 135.933C218.829 136.013 218.769 136.127 218.754 136.25C218.74 136.374 218.773 136.498 218.847 136.598C218.929 136.701 219.047 136.769 219.177 136.788C219.308 136.806 219.44 136.773 219.547 136.696C219.602 136.655 219.648 136.603 219.682 136.544C219.716 136.484 219.738 136.418 219.746 136.35C219.754 136.282 219.748 136.213 219.728 136.147C219.708 136.082 219.675 136.021 219.631 135.968Z" fill="#263238"/>
<path opacity="0.8" d="M219.631 135.968C219.569 135.896 219.489 135.841 219.4 135.807C218.49 133.007 212.582 116.088 204.056 117.971C203.399 118.084 202.78 118.36 202.258 118.775C201.735 119.189 201.326 119.729 201.067 120.344C198.673 125.944 206.282 138.992 207.262 140.644C207.216 140.729 207.195 140.826 207.202 140.923C207.21 141.02 207.245 141.113 207.304 141.19C207.343 141.243 207.393 141.288 207.45 141.321C207.506 141.354 207.569 141.376 207.635 141.384C207.7 141.393 207.766 141.388 207.83 141.37C207.893 141.353 207.953 141.322 208.004 141.281C208.057 141.242 208.101 141.192 208.135 141.136C208.168 141.079 208.19 141.017 208.199 140.952C208.208 140.886 208.204 140.82 208.188 140.757C208.171 140.693 208.142 140.633 208.102 140.581C208.055 140.519 207.993 140.47 207.922 140.437C207.852 140.404 207.774 140.388 207.696 140.392C206.8 138.88 199.247 125.86 201.522 120.533C201.75 119.988 202.112 119.51 202.575 119.143C203.038 118.776 203.586 118.531 204.168 118.433C212.127 116.683 217.979 133.077 218.924 135.933C218.829 136.013 218.769 136.127 218.754 136.25C218.74 136.374 218.773 136.498 218.847 136.598C218.929 136.701 219.047 136.769 219.177 136.788C219.308 136.806 219.44 136.773 219.547 136.696C219.602 136.655 219.648 136.603 219.682 136.544C219.716 136.484 219.738 136.418 219.746 136.35C219.754 136.282 219.748 136.213 219.728 136.147C219.708 136.082 219.675 136.021 219.631 135.968Z" fill="white"/>
<path d="M210.741 117.712L205.463 116.067L202.467 120.778L208.193 123.536L210.741 117.712Z" fill="#E4897B"/>
<path d="M166.187 155.253L161 156.73L159.922 160.153C160.419 162.953 165.76 161.742 165.76 161.742L166.852 162.442C167.057 162.571 167.291 162.647 167.533 162.664C167.775 162.681 168.017 162.639 168.239 162.541C168.461 162.443 168.655 162.292 168.805 162.101C168.955 161.911 169.056 161.687 169.099 161.448L169.666 158.214C169.707 157.953 169.677 157.685 169.58 157.439C169.483 157.193 169.322 156.977 169.113 156.814L167.482 155.54C167.303 155.395 167.093 155.293 166.868 155.243C166.644 155.193 166.41 155.197 166.187 155.253Z" fill="#E4897B"/>
<path d="M140.908 149.275C139.095 154.238 137.877 158.571 138.108 160.055C138.738 164.185 161.355 162.309 161.355 162.309V156.009L148.153 153.349L140.908 149.275Z" fill="#F83758"/>
<path d="M136.947 164.703C136.913 164.71 136.877 164.71 136.842 164.703C136.813 164.69 136.788 164.671 136.766 164.647C136.745 164.624 136.729 164.596 136.718 164.566C136.708 164.536 136.704 164.504 136.706 164.472C136.708 164.441 136.716 164.41 136.73 164.381C138.578 160.377 142.687 153.622 149.33 153.384C149.395 153.384 149.457 153.409 149.504 153.453C149.55 153.497 149.579 153.558 149.582 153.622C149.584 153.686 149.561 153.748 149.518 153.795C149.475 153.842 149.415 153.871 149.351 153.874C142.946 154.098 138.956 160.678 137.15 164.584C137.129 164.62 137.099 164.649 137.064 164.67C137.028 164.691 136.988 164.702 136.947 164.703Z" fill="#F83758"/>
<g opacity="0.6">
<path d="M136.947 164.703C136.913 164.71 136.877 164.71 136.842 164.703C136.813 164.69 136.788 164.671 136.766 164.647C136.745 164.624 136.729 164.596 136.718 164.566C136.708 164.536 136.704 164.504 136.706 164.472C136.708 164.441 136.716 164.41 136.73 164.381C138.578 160.377 142.687 153.622 149.33 153.384C149.395 153.384 149.457 153.409 149.504 153.453C149.55 153.497 149.579 153.558 149.582 153.622C149.584 153.686 149.561 153.748 149.518 153.795C149.475 153.842 149.415 153.871 149.351 153.874C142.946 154.098 138.956 160.678 137.15 164.584C137.129 164.62 137.099 164.649 137.064 164.67C137.028 164.691 136.988 164.702 136.947 164.703Z" fill="white"/>
</g>
<path d="M139.852 167.454H139.803C139.74 167.441 139.684 167.403 139.647 167.35C139.611 167.296 139.596 167.231 139.607 167.167C140.685 161.777 142.694 154.987 146.145 153.237C146.713 152.947 147.341 152.796 147.979 152.796C148.616 152.796 149.245 152.947 149.813 153.237C149.846 153.247 149.877 153.265 149.903 153.288C149.93 153.311 149.951 153.339 149.965 153.371C149.979 153.403 149.987 153.438 149.986 153.473C149.986 153.508 149.979 153.542 149.964 153.574C149.949 153.606 149.928 153.634 149.902 153.657C149.875 153.68 149.844 153.697 149.811 153.707C149.777 153.716 149.742 153.719 149.707 153.714C149.672 153.709 149.639 153.697 149.61 153.678C149.11 153.417 148.554 153.28 147.989 153.28C147.425 153.28 146.869 153.417 146.369 153.678C143.093 155.337 141.14 161.987 140.069 167.265C140.057 167.316 140.03 167.361 139.991 167.395C139.952 167.429 139.903 167.45 139.852 167.454Z" fill="#F83758"/>
<g opacity="0.7">
<path d="M139.852 167.454H139.803C139.74 167.441 139.684 167.403 139.647 167.35C139.611 167.296 139.596 167.231 139.607 167.167C140.685 161.777 142.694 154.987 146.145 153.237C146.713 152.947 147.341 152.796 147.979 152.796C148.616 152.796 149.245 152.947 149.813 153.237C149.846 153.247 149.877 153.265 149.903 153.288C149.93 153.311 149.951 153.339 149.965 153.371C149.979 153.403 149.987 153.438 149.986 153.473C149.986 153.508 149.979 153.542 149.964 153.574C149.949 153.606 149.928 153.634 149.902 153.657C149.875 153.68 149.844 153.697 149.811 153.707C149.777 153.716 149.742 153.719 149.707 153.714C149.672 153.709 149.639 153.697 149.61 153.678C149.11 153.417 148.554 153.28 147.989 153.28C147.425 153.28 146.869 153.417 146.369 153.678C143.093 155.337 141.14 161.987 140.069 167.265C140.057 167.316 140.03 167.361 139.991 167.395C139.952 167.429 139.903 167.45 139.852 167.454Z" fill="white"/>
</g>
<path d="M142.036 166.404C142.005 166.402 141.975 166.393 141.947 166.378C141.919 166.364 141.894 166.344 141.874 166.32C141.854 166.296 141.839 166.268 141.829 166.238C141.82 166.208 141.816 166.176 141.819 166.145C142.183 162.204 143.681 155.295 149.659 153.258C149.689 153.247 149.72 153.242 149.751 153.244C149.783 153.245 149.813 153.253 149.841 153.267C149.87 153.281 149.895 153.3 149.915 153.324C149.936 153.348 149.951 153.375 149.96 153.405C149.98 153.465 149.976 153.53 149.949 153.586C149.921 153.642 149.873 153.686 149.813 153.706C144.374 155.554 142.722 161.518 142.288 166.194C142.286 166.225 142.277 166.254 142.263 166.281C142.249 166.308 142.23 166.332 142.206 166.352C142.183 166.371 142.156 166.386 142.126 166.395C142.097 166.404 142.067 166.407 142.036 166.404Z" fill="#263238"/>
<path d="M146.6 174.958C146.545 174.959 146.492 174.94 146.45 174.906C146.407 174.871 146.379 174.823 146.369 174.769C146.243 174.125 143.394 159.005 147.678 154.504C148.149 154.007 148.738 153.636 149.389 153.426C150.041 153.215 150.736 153.172 151.409 153.3C151.47 153.31 151.525 153.344 151.563 153.393C151.6 153.442 151.618 153.504 151.612 153.566C151.601 153.629 151.567 153.685 151.516 153.723C151.465 153.76 151.402 153.777 151.339 153.769C150.741 153.65 150.124 153.684 149.543 153.869C148.963 154.054 148.439 154.383 148.021 154.826C143.898 159.159 146.803 174.524 146.831 174.678C146.841 174.74 146.827 174.804 146.792 174.856C146.757 174.908 146.703 174.945 146.642 174.958H146.6Z" fill="#263238"/>
</svg>
