<svg width="275" height="100" viewBox="0 0 275 100" fill="none" xmlns="http://www.w3.org/2000/svg">
<g clip-path="url(#clip0_1380_18563)">
<path d="M124.993 49.9986C124.993 36.7382 119.725 24.0208 110.349 14.6442C100.972 5.2677 88.255 1.7389e-06 74.9946 0C61.7342 -1.73889e-06 49.017 5.2677 39.6404 14.6442C30.2638 24.0208 24.9961 36.7382 24.9961 49.9986H40.6209C45.7984 49.9986 49.8363 45.6597 51.7327 40.8418C52.9778 37.6787 54.8672 34.7718 57.3173 32.3213C62.0056 27.6331 68.3644 24.9993 74.9946 24.9993C81.6248 24.9993 87.9836 27.6331 92.6719 32.3213C97.3602 37.0096 99.9938 43.3684 99.9938 49.9986H124.993Z" fill="url(#paint0_linear_1380_18563)"/>
<path d="M96.1912 69.1354C98.7039 63.0693 99.9973 56.5677 99.9973 50.002H124.994C124.994 77.6153 102.609 100 74.9953 100C70.6709 100 66.4744 99.4513 62.4727 98.4193C64.7369 97.8359 66.9624 97.093 69.1322 96.1944C75.1983 93.6817 80.7101 89.999 85.3529 85.3562C89.9958 80.7133 93.6788 75.2016 96.1912 69.1354Z" fill="#4392F9"/>
<path d="M0 49.9956C-9.3931e-07 56.5617 1.29325 63.0632 3.8059 69.1294C6.31858 75.1955 10.0014 80.7073 14.6442 85.3502C19.287 89.9927 24.7988 93.6757 30.8649 96.1884C36.931 98.7011 43.4325 99.9942 49.9986 99.9942C56.5643 99.9942 63.0659 98.7011 69.1321 96.1884C75.1982 93.6757 80.71 89.9927 85.3528 85.3502C89.9957 80.7073 93.6783 75.1955 96.1911 69.1294C98.7038 63.0632 99.9972 56.5617 99.9972 49.9956H84.3724C79.1948 49.9956 75.1569 54.3345 73.2605 59.152C73.2067 59.2893 73.1512 59.426 73.0948 59.5627C71.8385 62.5956 69.9971 65.3516 67.6755 67.6729C65.3543 69.9941 62.5982 71.8358 59.5653 73.0922C56.5324 74.3485 53.2816 74.9951 49.9986 74.9951C46.7156 74.9951 43.4648 74.3485 40.4319 73.0922C37.3986 71.8358 34.6429 69.9941 32.3213 67.6729C30 65.3516 28.1586 62.5956 26.9022 59.5627C25.6459 56.5294 24.9993 53.2786 24.9993 49.9956H0Z" fill="url(#paint1_linear_1380_18563)"/>
<path d="M0.00390625 49.9986C0.00390625 22.385 22.3889 0 50.0022 0C54.3257 0 58.5208 0.548716 62.5223 1.58035C53.9363 3.79217 46.0159 8.26832 39.6397 14.6443C30.2632 24.0207 24.9956 36.7382 24.9956 49.9986H0.00390625Z" fill="#F83758"/>
<path d="M147.138 64.36C145.912 64.36 144.718 64.2 143.558 63.88C142.398 63.56 141.152 63.06 139.818 62.38L138.438 64H137.198L136.418 53.86L138.078 53.6C138.932 56.5733 140.058 58.7267 141.458 60.06C142.872 61.3933 144.745 62.06 147.078 62.06C148.745 62.06 150.072 61.66 151.058 60.86C152.058 60.06 152.558 58.96 152.558 57.56C152.558 56.72 152.205 55.94 151.498 55.22C150.805 54.4867 149.605 53.7067 147.898 52.88L144.678 51.28C142.065 49.9867 140.145 48.5533 138.918 46.98C137.692 45.4067 137.078 43.5733 137.078 41.48C137.078 39.8667 137.525 38.4333 138.418 37.18C139.312 35.9133 140.518 34.92 142.038 34.2C143.572 33.48 145.305 33.12 147.238 33.12C149.945 33.12 152.265 33.94 154.198 35.58L155.138 33.48H156.458L156.838 42.24H155.098C154.445 39.9867 153.485 38.2933 152.218 37.16C150.965 36.0267 149.372 35.46 147.438 35.46C146.078 35.46 145.018 35.7933 144.258 36.46C143.498 37.1267 143.118 38.0467 143.118 39.22C143.118 40.1267 143.458 40.94 144.138 41.66C144.818 42.3667 145.998 43.1467 147.678 44L150.838 45.62C153.345 46.9 155.145 48.3067 156.238 49.84C157.345 51.3733 157.898 53.2133 157.898 55.36C157.898 57.0667 157.425 58.6 156.478 59.96C155.532 61.32 154.245 62.3933 152.618 63.18C150.992 63.9667 149.165 64.36 147.138 64.36ZM169.284 64.42C167.231 64.42 165.771 63.9733 164.904 63.08C164.038 62.1867 163.604 60.7533 163.604 58.78V45H160.804L160.564 43.78L168.544 37.7L169.764 37.9V43.02H175.884L175.304 45H169.764V58.38C169.764 60.5 170.591 61.56 172.244 61.56C172.711 61.56 173.151 61.48 173.564 61.32C173.978 61.16 174.358 60.8733 174.704 60.46L175.624 61.74C174.931 62.62 174.031 63.2867 172.924 63.74C171.818 64.1933 170.604 64.42 169.284 64.42ZM181.458 74.3C180.165 74.3 179.058 74.0133 178.138 73.44C177.231 72.8667 176.778 72.0133 176.778 70.88C176.778 70.12 177.031 69.5133 177.538 69.06C178.045 68.6067 178.645 68.38 179.338 68.38C179.925 68.38 180.445 68.5467 180.898 68.88C181.365 69.2133 181.698 69.72 181.898 70.4C182.085 71.0267 182.265 71.4333 182.438 71.62C182.611 71.82 182.878 71.92 183.238 71.92C183.705 71.92 184.165 71.6867 184.618 71.22C185.071 70.7533 185.445 70.1133 185.738 69.3L187.298 65.1L178.858 46C178.631 45.4933 178.291 45.1267 177.838 44.9C177.385 44.66 176.665 44.4933 175.678 44.4V43.02H188.598V44.4C187.758 44.4667 187.111 44.5733 186.658 44.72C186.218 44.8667 185.945 45.0733 185.838 45.34C185.731 45.6067 185.765 45.9533 185.938 46.38L190.538 57.22H190.738L194.718 47.54C195.171 46.5133 195.171 45.7533 194.718 45.26C194.278 44.7667 193.345 44.48 191.918 44.4V43.02H201.438V44.4C200.465 44.5867 199.718 44.7933 199.198 45.02C198.678 45.2467 198.271 45.56 197.978 45.96C197.685 46.3467 197.391 46.8867 197.098 47.58L187.978 69.58C187.605 70.4467 187.205 71.18 186.778 71.78C186.351 72.38 185.885 72.8733 185.378 73.26C184.405 73.9533 183.098 74.3 181.458 74.3ZM200.994 64V62.6L204.394 61.82V35.06L200.994 34V33.04L209.654 31.14H210.494V61.82L213.674 62.6V64H200.994ZM215.376 64V62.6L218.756 61.82V46.54L215.376 45.46V44.52L224.056 42.62H224.896V61.82L228.056 62.6V64H215.376ZM221.756 39.66C220.662 39.66 219.822 39.32 219.236 38.64C218.649 37.96 218.356 37.22 218.356 36.42C218.356 35.5533 218.656 34.7867 219.256 34.12C219.869 33.4533 220.702 33.12 221.756 33.12C222.836 33.12 223.689 33.4533 224.316 34.12C224.956 34.7867 225.276 35.5533 225.276 36.42C225.276 37.22 224.976 37.96 224.376 38.64C223.789 39.32 222.916 39.66 221.756 39.66ZM237.073 64.42C236.06 64.42 234.987 64.34 233.853 64.18C232.72 64.0333 231.747 63.8267 230.933 63.56L230.673 57.12H232.373C232.493 58.84 232.94 60.16 233.713 61.08C234.5 61.9867 235.58 62.44 236.953 62.44C237.98 62.44 238.8 62.18 239.413 61.66C240.027 61.1267 240.333 60.4333 240.333 59.58C240.333 58.9133 240.093 58.32 239.613 57.8C239.147 57.2667 238.347 56.7 237.213 56.1L235.293 55.12C233.72 54.2933 232.56 53.3733 231.813 52.36C231.08 51.3467 230.713 50.14 230.713 48.74C230.713 46.7267 231.447 45.2067 232.913 44.18C234.393 43.14 236.567 42.62 239.433 42.62C240.447 42.62 241.42 42.6867 242.353 42.82C243.3 42.94 244.06 43.1067 244.633 43.32V48.8H243.113C242.727 46 241.407 44.6 239.153 44.6C238.247 44.6 237.513 44.82 236.953 45.26C236.407 45.7 236.133 46.2733 236.133 46.98C236.133 47.6067 236.38 48.1733 236.873 48.68C237.367 49.1733 238.22 49.7133 239.433 50.3L241.333 51.28C242.813 52.04 243.907 52.9333 244.613 53.96C245.32 54.9733 245.673 56.2 245.673 57.64C245.673 59.7733 244.92 61.44 243.413 62.64C241.907 63.8267 239.793 64.42 237.073 64.42ZM247.988 64V62.6L250.948 61.82V35.1L247.968 34V33.08L256.248 31.14H257.108V61.82L259.868 62.6V64H247.988ZM262.048 64V62.6L264.828 61.82V50.98C264.828 49.3533 264.501 48.1533 263.848 47.38C263.195 46.5933 262.215 46.2 260.908 46.2C260.095 46.2 259.335 46.36 258.628 46.68C257.921 47 257.255 47.44 256.628 48V45.5C257.655 44.7 258.868 44.02 260.268 43.46C261.681 42.9 263.128 42.62 264.608 42.62C268.848 42.62 270.968 44.94 270.968 49.58V61.82L273.948 62.6V64H262.048Z" fill="#F83758"/>
</g>
<defs>
<linearGradient id="paint0_linear_1380_18563" x1="124.993" y1="24.9993" x2="24.9961" y2="24.9993" gradientUnits="userSpaceOnUse">
<stop stop-color="#CFE2FC"/>
<stop offset="1" stop-color="#4392F9"/>
</linearGradient>
<linearGradient id="paint1_linear_1380_18563" x1="3.27825e-06" y1="74.9951" x2="99.9972" y2="74.9951" gradientUnits="userSpaceOnUse">
<stop stop-color="#F8BCC6"/>
<stop offset="1" stop-color="#F83758"/>
</linearGradient>
<clipPath id="clip0_1380_18563">
<rect width="274.993" height="100" fill="white"/>
</clipPath>
</defs>
</svg>
